<svg width="16" height="16" viewBox="0 0 16 16" fill="none" xmlns="http://www.w3.org/2000/svg">
<path d="M7.99979 8L1.4375 14.5623" stroke="#333333"/>
<path d="M4.93739 8L1.4375 11.4999" stroke="#333333"/>
<path d="M7.99976 11.0624L4.49988 14.5623" stroke="#333333"/>
<path d="M1.5 8.03333H7.96642V14.4997H2C1.72386 14.4997 1.5 14.2759 1.5 13.9997V8.03333Z" stroke="#333333"/>
<path d="M8.0332 8.03333H13.9996C14.2758 8.03333 14.4996 8.25718 14.4996 8.53333V13.9997C14.4996 14.2759 14.2758 14.4997 13.9996 14.4997H8.0332V8.03333Z" stroke="#333333"/>
<path d="M1.5 2C1.5 1.72386 1.72386 1.5 2 1.5H7.46642C7.74257 1.5 7.96642 1.72386 7.96642 2V7.96642H1.5V2Z" stroke="#333333"/>
</svg>
