<svg width="16" height="16" viewBox="0 0 16 16" fill="none" xmlns="http://www.w3.org/2000/svg">
<path d="M8.5707 11.352L4.02565 4.97273M11.9663 11.352L7.42125 4.97273M10.5982 4.83293L15.4006 11.6043L14.0593 11.2369C13.6264 11.1183 13.1659 11.1508 12.7539 11.329C12.3419 11.5072 11.8815 11.5397 11.4485 11.4211L10.7761 11.2369C10.3432 11.1183 9.88273 11.1508 9.47072 11.329C9.0587 11.5072 8.59825 11.5397 8.1653 11.4211L7.82912 11.329C7.17856 11.1508 6.48669 11.1996 5.86759 11.4674L5.55099 11.6043L0.599243 4.83293L0.926809 4.69396C1.55549 4.42724 2.25549 4.37922 2.91471 4.5576L3.25172 4.64879C3.69259 4.76809 4.16074 4.73597 4.58119 4.5576C5.00164 4.37922 5.46979 4.34711 5.91066 4.4664L6.5847 4.64879C7.02557 4.76809 7.49372 4.73597 7.91417 4.5576C8.33462 4.37922 8.80277 4.34711 9.24364 4.4664L10.5982 4.83293Z" stroke="#333333" stroke-linecap="round" stroke-linejoin="round"/>
</svg>
