<svg width="16" height="16" viewBox="0 0 16 16" fill="none" xmlns="http://www.w3.org/2000/svg">
<path fill-rule="evenodd" clip-rule="evenodd" d="M6.15428 1H9.84559C10.1916 0.999991 10.4843 0.999983 10.7243 1.02172C10.9768 1.0446 11.2166 1.0945 11.4425 1.22211C11.785 1.41565 12.0542 1.71891 12.2201 2.07992C12.3267 2.31189 12.3689 2.55767 12.3887 2.82566C12.4078 3.085 12.4078 3.4038 12.4078 3.7923V14H13.8617C14.1378 14 14.3617 14.2239 14.3617 14.5C14.3617 14.7761 14.1378 15 13.8617 15H2.13818C1.86204 15 1.63818 14.7761 1.63818 14.5C1.63818 14.2239 1.86204 14 2.13818 14H3.5921L3.5921 3.7923C3.5921 3.4038 3.59209 3.085 3.6112 2.82566C3.63094 2.55767 3.67315 2.31189 3.77974 2.07992C3.94562 1.71891 4.21484 1.41565 4.55738 1.22211C4.78324 1.0945 5.02306 1.0446 5.27561 1.02172C5.51554 0.999983 5.80826 0.999991 6.15428 1ZM4.5921 14H11.4078V3.81111C11.4078 3.39918 11.4074 3.11737 11.3914 2.89914C11.3756 2.68541 11.3468 2.57445 11.3115 2.49744C11.2276 2.31487 11.0982 2.17619 10.9506 2.09276C10.8978 2.06294 10.8159 2.03412 10.634 2.01764C10.4446 2.00048 10.1975 2 9.82359 2H6.17628C5.80237 2 5.55527 2.00048 5.36584 2.01764C5.18396 2.03412 5.10208 2.06294 5.0493 2.09276C4.90164 2.17619 4.7723 2.31487 4.68841 2.49744C4.65302 2.57445 4.62424 2.68541 4.6085 2.89914C4.59242 3.11737 4.5921 3.39918 4.5921 3.81111V14ZM9.45385 8C9.45385 7.72386 9.67771 7.5 9.95385 7.5H9.96036C10.2365 7.5 10.4604 7.72386 10.4604 8V8.98047C10.4604 9.25661 10.2365 9.48047 9.96036 9.48047C9.68422 9.48047 9.46036 9.25661 9.46036 8.98047V8.08091C9.45608 8.05457 9.45385 8.02755 9.45385 8Z" fill="#2E2E2E"/>
</svg>
