<svg width="16" height="16" viewBox="0 0 16 16" fill="none" xmlns="http://www.w3.org/2000/svg">
<path fill-rule="evenodd" clip-rule="evenodd" d="M15.6327 5.26344C15.5428 5.11087 15.379 5.01722 15.2019 5.01722L13.9365 5.01722C13.6604 5.01722 13.4365 5.24108 13.4365 5.51722C13.4365 5.79336 13.6604 6.01722 13.9365 6.01722L14.2612 6.01722L14.1251 6.21054C13.9912 6.45206 14.0785 6.75638 14.32 6.89024C14.5615 7.02411 14.8659 6.93683 14.9997 6.69531L15.6392 5.75961C15.7251 5.60473 15.7226 5.41601 15.6327 5.26344ZM12.374 9.52468C12.1324 9.39081 11.8281 9.47809 11.6943 9.71961L11.5181 9.98275L10.9479 9.98275C10.6717 9.98275 10.4479 10.2066 10.4479 10.4828C10.4479 10.7589 10.6717 10.9828 10.9479 10.9828L11.8127 10.9828C11.9944 10.9828 12.1619 10.8841 12.25 10.7251L12.5689 10.2044C12.7028 9.96286 12.6155 9.65854 12.374 9.52468ZM9.71833 10.4828C9.71833 10.2066 9.49448 9.98275 9.21833 9.98275L7.48878 9.98275C7.21264 9.98275 6.98878 10.2066 6.98878 10.4828C6.98878 10.7589 7.21264 10.9828 7.48878 10.9828L9.21833 10.9828C9.49448 10.9828 9.71833 10.7589 9.71833 10.4828ZM6.39945 5.51722C6.39945 5.24108 6.17559 5.01722 5.89945 5.01722L5.1771 5.01722C5.02012 5.01722 4.87225 5.09094 4.77778 5.21631L4.37846 5.73646C4.21227 5.957 4.25633 6.2705 4.47687 6.43669C4.69741 6.60287 5.01091 6.55881 5.1771 6.33827L5.42639 6.01722L5.89945 6.01722C6.17559 6.01722 6.39945 5.79336 6.39945 5.51722ZM6.25923 10.4828C6.25923 10.2066 6.03537 9.98275 5.75923 9.98275L4.02968 9.98275C3.75353 9.98275 3.52968 10.2066 3.52968 10.4828C3.52968 10.7589 3.75353 10.9828 4.02968 10.9828L5.75923 10.9828C6.03537 10.9828 6.25923 10.7589 6.25923 10.4828ZM4.08587 6.86779C3.86533 6.70161 3.55183 6.74567 3.38565 6.96621L2.45021 8.20759C2.28402 8.42813 2.32809 8.74163 2.54862 8.90782C2.76916 9.074 3.08266 9.02994 3.24885 8.8094L4.18429 7.56802C4.35047 7.34748 4.30641 7.03398 4.08587 6.86779ZM2.38651 9.99019C2.62148 10.0311 2.80012 10.2361 2.80012 10.4828C2.80012 10.7589 2.57626 10.9828 2.30012 10.9828L1.43535 10.9828C1.24576 10.9828 1.07247 10.8755 0.987879 10.7059C0.903284 10.5362 0.921928 10.3333 1.03603 10.1818L1.50375 9.56116C1.66993 9.34062 1.98343 9.29656 2.20397 9.46274C2.37121 9.58877 2.43697 9.79951 2.38651 9.99019Z" fill="#333333"/>
<path d="M9.68201 5.51722C9.68201 5.24108 9.45815 5.01722 9.18201 5.01722L7.45245 5.01722C7.17631 5.01722 6.95245 5.24108 6.95245 5.51722C6.95245 5.79337 7.17631 6.01722 7.45245 6.01722L9.18201 6.01722C9.45815 6.01722 9.68201 5.79337 9.68201 5.51722Z" fill="#333333"/>
<path d="M12.918 5.51722C12.918 5.24108 12.6941 5.01722 12.418 5.01722L10.6884 5.01722C10.4123 5.01722 10.1884 5.24108 10.1884 5.51722C10.1884 5.79337 10.4123 6.01722 10.6884 6.01722L12.418 6.01722C12.6941 6.01722 12.918 5.79337 12.918 5.51722Z" fill="#333333"/>
<path fill-rule="evenodd" clip-rule="evenodd" d="M14.0173 7.29069C13.7968 7.12451 13.4833 7.16857 13.3171 7.38911L12.6055 8.41798C12.4394 8.63851 12.4834 8.95202 12.704 9.1182C12.9245 9.28439 13.238 9.24032 13.4042 9.01979L14.1157 7.99092C14.2819 7.77038 14.2378 7.45688 14.0173 7.29069Z" fill="#333333"/>
</svg>
