<svg width="16" height="16" viewBox="0 0 16 16" fill="none" xmlns="http://www.w3.org/2000/svg">
<path d="M2 11V5L8 8V14L2 11Z" fill="#BEBEBE"/>
<path d="M14 11V5L8 8V14L14 11Z" fill="#E4E4E4"/>
<path d="M13.25 5L8 2L2.375 5L8 8L13.25 5Z" fill="#F2F2F2"/>
<path d="M8 8L2 5M8 8L10.625 6.62857L13.625 5M8 8V13.625M2 5V10.6092C2 10.7965 2.10473 10.9681 2.27133 11.0538L7.76376 13.8785C7.91148 13.9545 8.08728 13.9521 8.23291 13.8722L13.3655 11.0567C13.5255 10.9689 13.625 10.8008 13.625 10.6183V5M2 5L7.76899 2.1155C7.9139 2.04305 8.08494 2.0453 8.22789 2.12154L13.625 5" stroke="#333333"/>
</svg>
