<svg width="16" height="17" viewBox="0 0 16 17" fill="none" xmlns="http://www.w3.org/2000/svg">
<path d="M14.2353 11.2394V6.03835C14.235 5.81033 14.1721 5.58639 14.0528 5.38897C13.9335 5.19156 13.762 5.02763 13.5556 4.91362L8.79739 2.31309C8.59072 2.19897 8.35629 2.13889 8.11765 2.13889C7.87901 2.13889 7.64458 2.19897 7.43791 2.31309L2.67974 4.91362C2.47328 5.02763 2.30179 5.19156 2.18248 5.38897C2.06318 5.58639 2.00024 5.81033 2 6.03835V11.2394C2.00024 11.4674 2.06318 11.6914 2.18248 11.8888C2.30179 12.0862 2.47328 12.2501 2.67974 12.3641L7.43791 14.9647C7.64458 15.0788 7.87901 15.1389 8.11765 15.1389C8.35629 15.1389 8.59072 15.0788 8.79739 14.9647L13.5556 12.3641C13.762 12.2501 13.9335 12.0862 14.0528 11.8888C14.1721 11.6914 14.235 11.4674 14.2353 11.2394Z" stroke="#333333" stroke-linecap="round" stroke-linejoin="round"/>
<path d="M2.38232 5.58005L8.11762 8.63887L13.8529 5.58005" stroke="#333333" stroke-linecap="round" stroke-linejoin="round"/>
<path d="M8.11768 14.7565V8.63889" stroke="#333333" stroke-linecap="round" stroke-linejoin="round"/>
</svg>
