<svg width="14" height="14" viewBox="0 0 14 14" fill="none" xmlns="http://www.w3.org/2000/svg">
<path d="M7 0.5C7.1901 0.5 7.37042 0.5438 7.54688 0.635742L7.54785 0.636719L12.9922 3.45312C13.1699 3.54587 13.292 3.6596 13.376 3.78906C13.4582 3.9159 13.5 4.055 13.5 4.21777V9.78223C13.5 9.945 13.4582 10.0841 13.376 10.2109C13.292 10.3403 13.1697 10.4532 12.9922 10.5459L7.54785 13.3633L7.54688 13.3643C7.37042 13.4562 7.1901 13.5 7 13.5C6.8099 13.5 6.62958 13.4562 6.45312 13.3643L6.45215 13.3633L1.00781 10.5459H1.00684C0.829715 10.4533 0.70785 10.3401 0.624023 10.2109C0.54181 10.0841 0.5 9.945 0.5 9.78223V4.21777C0.5 4.055 0.54181 3.91591 0.624023 3.78906C0.707914 3.65979 0.829499 3.54579 1.00684 3.45312L1.00781 3.4541L6.45215 0.636719L6.45312 0.635742C6.62958 0.5438 6.8099 0.5 7 0.5Z" stroke="#6C6C6D"/>
<path d="M1 4L6.55279 6.77639C6.83431 6.91716 7.16569 6.91716 7.44721 6.77639L13 4" stroke="#6C6C6D"/>
<path d="M7 7.00006V13.0001" stroke="#6C6C6D"/>
</svg>
