<svg width="126" height="82" viewBox="0 0 126 82" fill="none" xmlns="http://www.w3.org/2000/svg">
<g clip-path="url(#clip0_7974_146875)">
<path d="M8.89682 69.6253C8.89682 62.5533 10.2898 55.5506 12.9961 49.0169C15.7024 42.4832 19.6692 36.5466 24.6698 31.5459C29.6705 26.5453 35.6071 22.5786 42.1408 19.8722C48.6745 17.1659 55.6772 15.7729 62.7492 15.7729C69.8212 15.7729 76.8239 17.1659 83.3576 19.8722C89.8913 22.5786 95.8279 26.5453 100.829 31.5459C105.829 36.5466 109.796 42.4832 112.502 49.0169C115.209 55.5506 116.602 62.5533 116.602 69.6253" stroke="#E2E2E2" stroke-width="18.0713"/>
<path d="M8.89639 69.6253C8.89639 62.5533 10.2893 55.5506 12.9957 49.0169C15.702 42.4832 19.6687 36.5466 24.6694 31.5459C29.67 26.5453 35.6067 22.5786 42.1404 19.8722C48.674 17.1659 55.6768 15.7729 62.7488 15.7729C69.8208 15.7729 76.8235 17.1659 83.3572 19.8722C89.8908 22.5786 95.8275 26.5453 100.828 31.5459C105.829 36.5466 109.796 42.4832 112.502 49.0169C114.231 53.1925 115.425 57.5596 116.061 62.014" stroke="#2BA746" stroke-width="17.1075"/>
<path d="M125.371 62.068L71.3601 64.7286L71.4145 58.4687L125.371 62.068Z" fill="black"/>
<path d="M64.7783 54.322C68.7705 54.322 72.0068 57.5583 72.0068 61.5505C72.0068 65.5427 68.7705 68.779 64.7783 68.7791C60.7861 68.7791 57.5498 65.5427 57.5498 61.5505C57.5498 57.5583 60.7861 54.322 64.7783 54.322ZM64.7783 59.1414C63.4477 59.1414 62.3691 60.2199 62.3691 61.5505C62.3691 62.8812 63.4477 63.9596 64.7783 63.9597C66.1091 63.9597 67.1875 62.8813 67.1875 61.5505C67.1875 60.2198 66.1091 59.1414 64.7783 59.1414Z" fill="black"/>
</g>
<defs>
<clipPath id="clip0_7974_146875">
<rect width="125.294" height="81.9231" fill="white" transform="translate(0.352539)"/>
</clipPath>
</defs>
</svg>
