<svg width="14" height="14" viewBox="0 0 14 14" fill="none" xmlns="http://www.w3.org/2000/svg">
<path d="M13.304 0.431505C13.2976 0.322968 13.2517 0.220537 13.1748 0.143659C13.0979 0.0667806 12.9955 0.0208083 12.8869 0.0144699C12.631 -0.000614345 6.56488 -0.31694 3.24102 3.00736C2.35685 3.89038 1.83572 5.0727 1.78045 6.32107C1.72518 7.56944 2.13977 8.79319 2.94244 9.7509L0.135442 12.5557C0.0930688 12.5966 0.0592703 12.6456 0.0360188 12.6997C0.0127674 12.7538 0.000528646 12.812 1.67509e-05 12.8709C-0.000495144 12.9299 0.0107301 12.9883 0.0330374 13.0428C0.0553447 13.0973 0.0882873 13.1469 0.129943 13.1885C0.171599 13.2302 0.221134 13.2631 0.275657 13.2854C0.330181 13.3077 0.388601 13.3189 0.447509 13.3184C0.506417 13.3179 0.564633 13.3057 0.618761 13.2824C0.672889 13.2592 0.721843 13.2254 0.762769 13.183L3.56977 10.376C4.52733 11.178 5.75061 11.5923 6.99846 11.537C8.24631 11.4817 9.42819 10.961 10.3111 10.0774C13.6354 6.75313 13.3191 0.687937 13.304 0.431505ZM9.68377 9.4501C8.96634 10.1657 8.01017 10.5916 6.99832 10.6462C5.98647 10.7008 4.99003 10.3803 4.19976 9.74602L5.51297 8.43281H7.99122C8.10889 8.43281 8.22173 8.38606 8.30494 8.30286C8.38814 8.21966 8.43488 8.10682 8.43488 7.98915C8.43488 7.87149 8.38814 7.75864 8.30494 7.67544C8.22173 7.59224 8.10889 7.5455 7.99122 7.5455H6.40028L6.97393 6.97185L10.0795 3.86627C10.1603 3.7826 10.205 3.67053 10.204 3.55421C10.203 3.43788 10.1564 3.32661 10.0741 3.24435C9.99184 3.16209 9.88057 3.11544 9.76424 3.11443C9.64792 3.11341 9.53585 3.15813 9.45218 3.23895L7.10392 5.58721V3.99626C7.10392 3.8786 7.05717 3.76576 6.97397 3.68255C6.89077 3.59935 6.77793 3.55261 6.66026 3.55261C6.5426 3.55261 6.42975 3.59935 6.34655 3.68255C6.26335 3.76576 6.21661 3.8786 6.21661 3.99626V6.47452L5.01564 7.67549L3.57243 9.11869C2.93816 8.32843 2.61764 7.33198 2.67224 6.32013C2.72684 5.30828 3.15272 4.35212 3.86835 3.63469C6.4411 1.06194 11.0347 0.878708 12.4278 0.890687C12.4358 2.27888 12.2565 6.87735 9.68377 9.4501Z" fill="#34495E"/>
</svg>
