<svg width="126" height="83" viewBox="0 0 126 83" fill="none" xmlns="http://www.w3.org/2000/svg">
<g clip-path="url(#clip0_7974_147127)">
<path d="M8.90073 70.5484C8.90073 63.4764 10.2937 56.4737 13 49.94C15.7063 43.4063 19.6731 37.4697 24.6737 32.469C29.6744 27.4684 35.611 23.5016 42.1447 20.7953C48.6784 18.089 55.6811 16.696 62.7531 16.696C69.8251 16.696 76.8278 18.089 83.3615 20.7953C89.8952 23.5016 95.8318 27.4684 100.832 32.469C105.833 37.4697 109.8 43.4063 112.506 49.94C115.213 56.4737 116.605 63.4764 116.605 70.5484" stroke="#E2E2E2" stroke-width="18.0713"/>
<path d="M8.89995 70.5485C8.89995 63.4765 10.2929 56.4738 12.9992 49.9401C15.7056 43.4064 19.6723 37.4698 24.673 32.4691C25.668 31.4741 26.7 30.5201 27.7665 29.6087C27.8645 29.5249 27.9629 29.4415 28.0615 29.3584" stroke="#C1272D" stroke-width="18.0713"/>
<path d="M22.1636 22.7748L57.3135 61.7715L61.7053 57.3105L22.1636 22.7748Z" fill="black"/>
<path d="M62.3242 55.2451C58.332 55.2451 55.0957 58.4814 55.0957 62.4736C55.0957 66.4658 58.332 69.7021 62.3242 69.7021C66.3164 69.7021 69.5527 66.4658 69.5527 62.4736C69.5527 58.4814 66.3164 55.2451 62.3242 55.2451ZM62.3242 60.0645C63.6549 60.0645 64.7334 61.1429 64.7334 62.4736C64.7334 63.8044 63.6549 64.8828 62.3242 64.8828C60.9935 64.8828 59.915 63.8043 59.915 62.4736C59.915 61.1429 60.9935 60.0645 62.3242 60.0645Z" fill="black"/>
</g>
<defs>
<clipPath id="clip0_7974_147127">
<rect width="125.294" height="81.9231" fill="white" transform="translate(0.352539 0.923096)"/>
</clipPath>
</defs>
</svg>
