<svg width="35" height="23" viewBox="0 0 35 23" fill="none" xmlns="http://www.w3.org/2000/svg">
<path d="M34.6012 11.8048C34.4264 11.5295 34.1272 11.3651 33.8011 11.3651H29.4981C28.731 11.3651 28.1069 11.9892 28.1069 12.7562C28.1069 12.7714 28.1057 12.7864 28.1039 12.8011V9.52058C28.1039 9.04922 27.7204 8.66569 27.2491 8.66569H23.5236V4.8547C23.5236 4.49166 23.2282 4.19629 22.8652 4.19629H14.0015C13.6384 4.19629 13.343 4.49166 13.343 4.8547V13.1276H11.7663V10.1182C12.1362 10.1173 12.4369 9.81622 12.4369 9.44613V8.2005C12.4369 7.82986 12.1353 7.52831 11.7647 7.52831H10.2486V3.78058C10.2486 3.36087 9.90714 3.01942 9.48736 3.01942H7.29977V0.515272C7.29977 0.230691 7.06908 0 6.78449 0C6.49991 0 6.26922 0.230691 6.26922 0.515272V3.01948H4.08163C3.66192 3.01948 3.32046 3.36094 3.32046 3.78065V7.52838H1.80424C1.4336 7.52838 1.13205 7.82993 1.13205 8.20057V9.44619C1.13205 9.81629 1.43272 10.1174 1.80261 10.1182V13.1277H0.882626C0.615217 13.1277 0.36525 13.2468 0.196932 13.4545C0.0288171 13.6618 -0.0359312 13.9303 0.0192474 14.1913C0.389616 15.9442 1.28652 17.6538 2.61305 19.1352C2.68363 19.214 2.72775 19.309 2.74641 19.4086C2.7515 19.4358 2.75442 19.463 2.75558 19.4901C2.75571 19.493 2.75612 19.4961 2.75619 19.4991C2.75693 19.5247 2.7553 19.5502 2.75266 19.5755C2.75211 19.5803 2.75218 19.5852 2.7515 19.59C2.74838 19.6135 2.74302 19.6365 2.73698 19.6595C2.73535 19.6656 2.7346 19.6717 2.73277 19.6778C2.72429 19.7062 2.71377 19.734 2.7008 19.7611L1.86871 21.5031C1.72727 21.7993 1.74729 22.142 1.9224 22.4196C2.09751 22.6973 2.39797 22.863 2.72626 22.863H29.2902C29.6559 22.863 29.9926 22.6491 30.148 22.3181L34.659 12.7158C34.7977 12.4207 34.7761 12.08 34.6012 11.8048ZM23.5235 9.68544H27.0842V13.1277H23.5235V9.68544ZM18.9431 5.21597H22.5038V8.66569H18.9431V5.21597ZM18.9431 9.68544H22.5038V13.1277H18.9431V9.68544ZM14.3627 5.21597H17.9234V8.66569H14.3627V5.21597ZM14.3627 9.68544H17.9234V13.1277H14.3627V9.68544ZM4.34015 4.03917H9.22891V7.52838H4.34015V4.03917ZM2.1518 8.54807H11.4171V9.09863H5.65079C5.36919 9.09863 5.14095 9.32688 5.14095 9.60847C5.14095 9.89007 5.36919 10.1183 5.65079 10.1183H10.7466V13.1277H2.82236V10.1183H3.25327C3.53486 10.1183 3.76311 9.89007 3.76311 9.60847C3.76311 9.32688 3.53486 9.09863 3.25327 9.09863H2.1518V8.54807ZM30.675 18.7987H25.6208C25.3392 18.7987 25.111 19.0269 25.111 19.3085C25.111 19.5901 25.3392 19.8183 25.6208 19.8183H30.196L29.2446 21.8434H2.83627L3.62092 20.2006C3.63714 20.1667 3.6518 20.1323 3.66545 20.0976C3.66972 20.0868 3.67339 20.0758 3.67746 20.0649C3.68628 20.041 3.69483 20.0171 3.70244 19.993C3.70671 19.9795 3.71051 19.966 3.71445 19.9525C3.72062 19.9311 3.72639 19.9097 3.73162 19.8882C3.73542 19.8724 3.73902 19.8568 3.74234 19.841C3.7439 19.8335 3.74601 19.8259 3.7475 19.8184H23.2232C23.5048 19.8184 23.7331 19.5902 23.7331 19.3086C23.7331 19.027 23.5048 18.7987 23.2232 18.7987H3.6064C3.54457 18.6765 3.4672 18.5605 3.37272 18.455C2.19035 17.1346 1.41086 15.6863 1.0538 14.1474L27.594 14.1549C27.6227 14.1549 27.708 14.152 27.7354 14.1474C28.5025 14.1474 29.1265 13.5233 29.1265 12.7562C29.1265 12.5514 29.2932 12.3848 29.4981 12.3848H33.688L30.675 18.7987Z" fill="#34495E"/>
</svg>
