<svg width="12" height="12" viewBox="0 0 12 12" fill="none" xmlns="http://www.w3.org/2000/svg">
<g clip-path="url(#clip0_4391_20680)">
<path d="M0 8.99998V3L6.17142 5.99999V12L0 8.99998Z" fill="#6F6F6F"/>
<path d="M12 9.00003V3.33337L6.17144 6.00003V12L12 9.00003Z" fill="#6F6F6F"/>
<path d="M11.5714 2.99999L6.17139 0L0.38568 2.99999L6.17139 5.99998L11.5714 2.99999Z" fill="#6F6F6F"/>
<path d="M6.17142 5.99998L0 2.99999M6.17142 5.99998L8.87142 4.62856L11.9571 2.99999M6.17142 5.99998V11.625M0 2.99999V8.60525C0 8.79463 0.107001 8.96776 0.276393 9.05246L5.94041 11.8845C6.08532 11.9569 6.25636 11.9547 6.39931 11.8784L11.6924 9.05544C11.8554 8.96854 11.9571 8.79892 11.9571 8.61426V2.99999M0 2.99999L5.94559 0.109781C6.08769 0.0407045 6.25407 0.0428575 6.39434 0.115588L11.9571 2.99999" stroke="white"/>
</g>
<defs>
<clipPath id="clip0_4391_20680">
<rect width="12" height="12" fill="white"/>
</clipPath>
</defs>
</svg>
