<svg width="30" height="20" viewBox="0 0 30 20" fill="none" xmlns="http://www.w3.org/2000/svg">
<path d="M8.48913 16.4784H19.3251C19.5866 16.4784 19.8006 16.2664 19.8006 16.0029V2.57669C19.8006 1.69382 19.0817 0.975 18.1989 0.975H1.77883C0.895973 0.975 0.177148 1.69382 0.177148 2.57669V14.8767C0.177148 15.7596 0.895973 16.4784 1.77883 16.4784H3.37992C3.64337 16.4784 3.8554 16.2664 3.8554 16.0029C3.8554 15.7395 3.64337 15.5274 3.37992 15.5274H1.77883C1.41912 15.5274 1.12811 15.2364 1.12811 14.8767V2.57669C1.12811 2.21697 1.41912 1.92596 1.77883 1.92596H18.1989C18.5586 1.92596 18.8496 2.21697 18.8496 2.57669V15.5274H8.48913C8.22568 15.5274 8.01365 15.7395 8.01365 16.0029C8.01365 16.2664 8.22568 16.4784 8.48913 16.4784Z" fill="#34495E" stroke="#34495E" stroke-width="0.05"/>
<path d="M2.9042 16.003C2.9042 17.6742 4.26308 19.033 5.93429 19.033C7.60549 19.033 8.96437 17.6742 8.96437 16.003C8.96437 14.3317 7.60549 12.9729 5.93429 12.9729C4.26308 12.9729 2.9042 14.3317 2.9042 16.003ZM3.85516 16.003C3.85516 14.8568 4.7881 13.9238 5.93429 13.9238C7.08047 13.9238 8.01341 14.8568 8.01341 16.003C8.01341 17.1491 7.08047 18.0821 5.93429 18.0821C4.7881 18.0821 3.85516 17.1491 3.85516 16.003Z" fill="#34495E" stroke="#34495E" stroke-width="0.05"/>
<path d="M4.59951 16.0029C4.59951 16.7394 5.19821 17.338 5.93466 17.338C6.67112 17.338 7.26981 16.7394 7.26981 16.0029C7.26981 15.2664 6.67112 14.6677 5.93466 14.6677C5.19821 14.6677 4.59951 15.2664 4.59951 16.0029ZM5.55047 16.0029C5.55047 15.7915 5.72323 15.6187 5.93466 15.6187C6.1461 15.6187 6.31885 15.7915 6.31885 16.0029C6.31885 16.2143 6.1461 16.3871 5.93466 16.3871C5.72323 16.3871 5.55047 16.2143 5.55047 16.0029Z" fill="#34495E" stroke="#34495E" stroke-width="0.05"/>
<path d="M0.65263 14.8266H3.98432C4.24777 14.8266 4.4598 14.6146 4.4598 14.3511C4.4598 14.0877 4.24777 13.8756 3.98432 13.8756H0.65263C0.389181 13.8756 0.177148 14.0877 0.177148 14.3511C0.177148 14.6146 0.389181 14.8266 0.65263 14.8266Z" fill="#34495E" stroke="#34495E" stroke-width="0.05"/>
<path d="M7.88261 14.8266H19.3248C19.5863 14.8266 19.8003 14.6146 19.8003 14.3511C19.8003 14.0877 19.5883 13.8756 19.3248 13.8756H7.88261C7.61916 13.8756 7.40713 14.0877 7.40713 14.3511C7.40713 14.6146 7.61916 14.8266 7.88261 14.8266Z" fill="#34495E" stroke="#34495E" stroke-width="0.05"/>
<path d="M24.6702 5.26772L24.6702 5.26775L28.0186 11.0056C28.0187 11.0056 28.0187 11.0057 28.0187 11.0057C28.0767 11.1071 28.1073 11.2192 28.1073 11.3348V14.8767C28.1073 15.2364 27.8163 15.5274 27.4566 15.5274H26.5932C26.3297 15.5274 26.1177 15.7394 26.1177 16.0029C26.1177 16.2663 26.3297 16.4784 26.5932 16.4784H27.4566C28.3395 16.4784 29.0583 15.7595 29.0583 14.8767V11.3348C29.0583 11.0526 28.9839 10.7742 28.8409 10.5282L28.8409 10.5282L25.4923 4.79019C25.2063 4.30013 24.6763 3.99508 24.108 3.99508H19.3235C19.0601 3.99508 18.848 4.20711 18.848 4.47056V16.001C18.848 16.2645 19.0601 16.4765 19.3235 16.4765H21.4821C21.7455 16.4765 21.9576 16.2645 21.9576 16.001C21.9576 15.7376 21.7455 15.5255 21.4821 15.5255H19.799V4.94417H24.108C24.3393 4.94417 24.5545 5.06891 24.6702 5.26772Z" fill="#34495E" stroke="#34495E" stroke-width="0.05"/>
<path d="M24.3079 5.97475L24.3078 5.97464C24.2227 5.82812 24.0662 5.73696 23.8958 5.73696H21.0184C20.7549 5.73696 20.5429 5.949 20.5429 6.21244V11.0307C20.5429 11.2942 20.7549 11.5062 21.0184 11.5062H26.6644C26.833 11.5062 26.9894 11.415 27.0745 11.2685L27.0747 11.2683C27.1577 11.122 27.1599 10.9398 27.0746 10.793C27.0746 10.7929 27.0746 10.7929 27.0745 10.7929L24.3079 5.97475ZM23.6223 6.68793L25.8423 10.5552H21.4938V6.68793H23.6223Z" fill="#34495E" stroke="#34495E" stroke-width="0.05"/>
<path d="M21.0082 16.003C21.0082 17.6742 22.3671 19.033 24.0383 19.033C25.7095 19.033 27.0684 17.6742 27.0684 16.003C27.0684 14.3317 25.7095 12.9729 24.0383 12.9729C22.3671 12.9729 21.0082 14.3317 21.0082 16.003ZM21.9592 16.003C21.9592 14.8568 22.8921 13.9238 24.0383 13.9238C25.1845 13.9238 26.1174 14.8568 26.1174 16.003C26.1174 17.1491 25.1845 18.0821 24.0383 18.0821C22.8921 18.0821 21.9592 17.1491 21.9592 16.003Z" fill="#34495E" stroke="#34495E" stroke-width="0.05"/>
<path d="M22.703 16.0029C22.703 16.7394 23.3017 17.338 24.0382 17.338C24.7746 17.338 25.3733 16.7394 25.3733 16.0029C25.3733 15.2664 24.7746 14.6677 24.0382 14.6677C23.3017 14.6677 22.703 15.2664 22.703 16.0029ZM23.654 16.0029C23.654 15.7915 23.8267 15.6187 24.0382 15.6187C24.2496 15.6187 24.4224 15.7915 24.4224 16.0029C24.4224 16.2143 24.2496 16.3871 24.0382 16.3871C23.8267 16.3871 23.654 16.2143 23.654 16.0029Z" fill="#34495E" stroke="#34495E" stroke-width="0.05"/>
</svg>
