<svg width="126" height="82" viewBox="0 0 126 82" fill="none" xmlns="http://www.w3.org/2000/svg">
<g clip-path="url(#clip0_7974_147117)">
<path d="M8.9017 69.6253C8.9017 62.5533 10.2946 55.5506 13.001 49.0169C15.7073 42.4832 19.674 36.5466 24.6747 31.5459C29.6754 26.5453 35.612 22.5786 42.1457 19.8722C48.6793 17.1659 55.6821 15.7729 62.7541 15.7729C69.8261 15.7729 76.8288 17.1659 83.3625 19.8722C89.8962 22.5786 95.8328 26.5453 100.833 31.5459C105.834 36.5466 109.801 42.4832 112.507 49.0169C115.214 55.5506 116.606 62.5533 116.606 69.6253" stroke="#E2E2E2" stroke-width="18.0713"/>
<path d="M62.3242 54.322C58.332 54.322 55.0957 57.5583 55.0957 61.5505C55.0957 65.5427 58.332 68.779 62.3242 68.7791C66.3164 68.7791 69.5527 65.5427 69.5527 61.5505C69.5527 57.5583 66.3164 54.322 62.3242 54.322ZM62.3242 59.1414C63.6549 59.1414 64.7334 60.2198 64.7334 61.5505C64.7334 62.8813 63.6549 63.9597 62.3242 63.9597C60.9935 63.9597 59.915 62.8813 59.915 61.5505C59.915 60.2198 60.9935 59.1414 62.3242 59.1414Z" fill="#333333"/>
<path d="M0.761755 69.5688L56.9471 66.3165L56.2383 60.0966L0.761755 69.5688Z" fill="#333333"/>
</g>
<defs>
<clipPath id="clip0_7974_147117">
<rect width="125.294" height="81.9231" fill="white" transform="translate(0.352539)"/>
</clipPath>
</defs>
</svg>
