<svg width="16" height="16" viewBox="0 0 16 16" fill="none" xmlns="http://www.w3.org/2000/svg">
<path d="M14.0001 13.5C14.0001 13.6326 13.9474 13.7598 13.8536 13.8536C13.7599 13.9473 13.6327 14 13.5001 14H4.50007C4.36746 14 4.24029 13.9473 4.14652 13.8536C4.05275 13.7598 4.00007 13.6326 4.00007 13.5C4.00007 13.3674 4.05275 13.2402 4.14652 13.1464C4.24029 13.0527 4.36746 13 4.50007 13H13.5001C13.6327 13 13.7599 13.0527 13.8536 13.1464C13.9474 13.2402 14.0001 13.3674 14.0001 13.5ZM15.5001 8.5V10C15.5001 10.1326 15.4474 10.2598 15.3536 10.3536C15.2599 10.4473 15.1327 10.5 15.0001 10.5H3.81695C3.27868 10.5025 2.75417 10.33 2.32236 10.0087C1.89054 9.68734 1.57477 9.23443 1.42257 8.71813L0.543196 5.7875C0.498395 5.63825 0.489094 5.4806 0.516035 5.32711C0.542976 5.17363 0.605413 5.02857 0.698366 4.9035C0.791319 4.77843 0.912214 4.67681 1.05141 4.60675C1.1906 4.5367 1.34424 4.50014 1.50007 4.5H2.00007C2.1325 4.50006 2.2595 4.55266 2.3532 4.64625L3.70757 6H5.1132L4.5507 4.31625C4.50057 4.16587 4.4869 4.00573 4.51083 3.84904C4.53476 3.69234 4.5956 3.54358 4.68833 3.41502C4.78105 3.28645 4.90302 3.18178 5.04415 3.10962C5.18529 3.03746 5.34156 2.99989 5.50007 3H6.00007C6.06575 2.99995 6.1308 3.01284 6.1915 3.03793C6.25219 3.06303 6.30735 3.09983 6.35382 3.14625L9.20757 6H13.0001C13.6631 6 14.299 6.26339 14.7678 6.73223C15.2367 7.20107 15.5001 7.83696 15.5001 8.5ZM14.5001 8.5C14.5001 8.10218 14.342 7.72064 14.0607 7.43934C13.7794 7.15804 13.3979 7 13.0001 7H9.00007C8.86764 6.99994 8.74064 6.94734 8.64695 6.85375L5.7932 4H5.50007L6.2807 6.34188C6.30574 6.41699 6.31258 6.49698 6.30066 6.57525C6.28875 6.65353 6.25841 6.72785 6.21215 6.79211C6.1659 6.85637 6.10504 6.90873 6.03459 6.94487C5.96415 6.98101 5.88612 6.99991 5.80695 7H3.50007C3.43439 7.00005 3.36934 6.98716 3.30865 6.96207C3.24795 6.93697 3.19279 6.90017 3.14632 6.85375L1.7932 5.5H1.50007L2.37945 8.43125C2.47088 8.74111 2.6605 9.01287 2.91976 9.20563C3.17902 9.39839 3.49389 9.50169 3.81695 9.5H14.5001V8.5Z" fill="#6C6C6D"/>
</svg>
