<svg width="18" height="18" viewBox="0 0 18 18" fill="none" xmlns="http://www.w3.org/2000/svg">
<path d="M9 4.1087C9.34099 4.1087 9.66802 3.97127 9.90914 3.72666C10.1503 3.48205 10.2857 3.15028 10.2857 2.80435C10.2857 2.45841 10.1503 2.12665 9.90914 1.88203C9.66802 1.63742 9.34099 1.5 9 1.5C8.65901 1.5 8.33198 1.63742 8.09086 1.88203C7.84974 2.12665 7.71429 2.45841 7.71429 2.80435C7.71429 3.15028 7.84974 3.48205 8.09086 3.72666C8.33198 3.97127 8.65901 4.1087 9 4.1087ZM9 4.1087V16.5M5.78571 10.9565C4.5 10.9565 3.53571 10.3043 2.57143 9H2.25C2.25 12.0522 4.21714 14.6367 6.93643 15.5217C7.71429 15.7826 8.35714 15.8478 8.91964 16.5H9.08036C9.64286 15.8478 10.2857 15.7826 11.0642 15.5217C13.7822 14.6367 15.75 12.0522 15.75 9H15.4286C14.4643 10.3043 13.5 10.9565 12.2143 10.9565M5.78571 6.06522C5.78571 6.06522 7.39286 6.71739 9 6.71739C10.6071 6.71739 12.2143 6.06522 12.2143 6.06522" stroke="black"/>
</svg>
