<svg width="24" height="24" viewBox="0 0 24 24" fill="none" xmlns="http://www.w3.org/2000/svg">
<path d="M13 9L10 13H14L11 17" stroke="black" stroke-linecap="round" stroke-linejoin="round"/>
<path d="M11.983 2.65723C12.3834 3.03012 12.878 3.60918 13.4215 4.35156C14.1022 5.28126 14.835 6.42743 15.528 7.64746C16.9231 10.1039 18.118 12.7921 18.4323 14.5859C18.7278 16.2734 18.0354 17.9954 16.776 19.3164C15.5161 20.6379 13.7402 21.5 11.9801 21.5C10.2349 21.4998 8.51731 20.5847 7.27795 19.2256C6.03592 17.8634 5.33904 16.1279 5.53284 14.5615C5.63258 13.7555 5.97552 12.6809 6.48596 11.4766C6.99307 10.2801 7.65249 8.98565 8.36194 7.74902C9.07132 6.51254 9.82684 5.34099 10.524 4.38965C11.0806 3.63022 11.5833 3.03581 11.983 2.65723Z" stroke="black" stroke-linejoin="round"/>
</svg>
