<svg width="32" height="25" viewBox="0 0 32 25" fill="none" xmlns="http://www.w3.org/2000/svg">
<path d="M31.0625 0H0.9375C0.41975 0 0 0.41975 0 0.9375V6.58594C0 7.10369 0.41975 7.52344 0.9375 7.52344H1.88281V23.5312C1.88281 24.049 2.30256 24.4688 2.82031 24.4688H29.1797C29.6974 24.4688 30.1172 24.049 30.1172 23.5312V7.52344H31.0625C31.5802 7.52344 32 7.10369 32 6.58594V0.9375C32 0.41975 31.5802 0 31.0625 0ZM28.2422 22.5938H3.75781V7.52344H28.2422V22.5938ZM30.125 5.64844H1.875V1.875H30.125V5.64844Z" fill="#34495E"/>
</svg>
