<svg viewBox="0 0 21 20" fill="none" xmlns="http://www.w3.org/2000/svg">
<path d="M3.92996 6.02527L3.07873 12.4095C3.03022 12.7733 3.18494 13.1345 3.48179 13.3504L8.14552 16.7422C8.37146 16.9065 8.65585 16.9688 8.92981 16.914L15.4485 15.6103C15.791 15.5418 16.0729 15.2996 16.1922 14.9715L17.8372 10.4477C17.9402 10.1645 17.9099 9.84991 17.7549 9.59148L15.1498 5.2497C15.052 5.08662 14.9096 4.95482 14.7395 4.86977L10.4472 2.72361C10.1657 2.58284 9.83431 2.58284 9.55279 2.72361L4.47398 5.26301C4.17752 5.41124 3.97377 5.69673 3.92996 6.02527Z" stroke="currentColor"/>
<path d="M10 2.5L8 8.5M8 8.5L4.5 5.5M8 8.5L7.5 12.5M7.5 12.5L3.5 13M7.5 12.5L8.5 16.5M7.5 12.5L13.5 10.5M13.5 10.5L15.5 5.5M13.5 10.5L16 15.5M13.5 10.5L10.5 3" stroke="currentColor"/>
</svg>
