<svg viewBox="0 0 20 21" fill="none" xmlns="http://www.w3.org/2000/svg">
<g clip-path="url(#clip0_1433_1505)">
<path d="M6.5625 13C8.80616 13 10.625 11.1812 10.625 8.9375C10.625 6.69384 8.80616 4.875 6.5625 4.875C4.31884 4.875 2.5 6.69384 2.5 8.9375C2.5 11.1812 4.31884 13 6.5625 13Z" stroke="currentColor" stroke-linecap="round" stroke-linejoin="round"/>
<path d="M0.799316 16.125C1.42361 15.1651 2.27775 14.3764 3.28421 13.8304C4.29067 13.2843 5.41757 12.9984 6.5626 12.9984C7.70763 12.9984 8.83452 13.2843 9.84098 13.8304C10.8474 14.3764 11.7016 15.1651 12.3259 16.125" stroke="currentColor" stroke-linecap="round" stroke-linejoin="round"/>
<path d="M13.4375 13C14.5825 12.9993 15.7095 13.2849 16.716 13.8306C17.7225 14.3764 18.5767 15.1651 19.2008 16.125" stroke="currentColor" stroke-linecap="round" stroke-linejoin="round"/>
<path d="M11.9287 5.16406C12.4844 4.94242 13.0822 4.84625 13.6794 4.88244C14.2766 4.91862 14.8584 5.08626 15.3833 5.37338C15.9082 5.66051 16.3632 6.06002 16.7158 6.54337C17.0684 7.02672 17.3099 7.58198 17.423 8.16948C17.5361 8.75698 17.518 9.36221 17.3701 9.94192C17.2222 10.5216 16.948 11.0615 16.5673 11.523C16.1865 11.9845 15.7085 12.3562 15.1674 12.6115C14.6264 12.8668 14.0356 12.9995 13.4373 13" stroke="currentColor" stroke-linecap="round" stroke-linejoin="round"/>
</g>
<defs>
<clipPath id="clip0_1433_1505">
<rect width="20" height="20" fill="white" transform="translate(0 0.5)"/>
</clipPath>
</defs>
</svg>
