<svg viewBox="0 0 16 16" fill="none" xmlns="http://www.w3.org/2000/svg">
<path d="M1.59961 3.59922C1.59961 3.49313 1.64175 3.39139 1.71677 3.31638C1.79178 3.24136 1.89352 3.19922 1.99961 3.19922H13.9996C14.1057 3.19922 14.2074 3.24136 14.2825 3.31638C14.3575 3.39139 14.3996 3.49313 14.3996 3.59922C14.3996 3.70531 14.3575 3.80705 14.2825 3.88206C14.2074 3.95708 14.1057 3.99922 13.9996 3.99922H1.99961C1.89352 3.99922 1.79178 3.95708 1.71677 3.88206C1.64175 3.80705 1.59961 3.70531 1.59961 3.59922ZM4.11641 5.71673C4.15357 5.67948 4.19771 5.64993 4.2463 5.62976C4.2949 5.6096 4.347 5.59922 4.39961 5.59922C4.45222 5.59922 4.50432 5.6096 4.55292 5.62976C4.60151 5.64993 4.64565 5.67948 4.68281 5.71673L6.68281 7.71673C6.75792 7.79184 6.80011 7.89371 6.80011 7.99993C6.80011 8.10615 6.75792 8.20803 6.68281 8.28313C6.6077 8.35824 6.50583 8.40044 6.39961 8.40044C6.29339 8.40044 6.19152 8.35824 6.11641 8.28313L4.79961 6.96553V12.3999C4.79961 12.506 4.75747 12.6078 4.68245 12.6828C4.60744 12.7578 4.5057 12.7999 4.39961 12.7999C4.29352 12.7999 4.19178 12.7578 4.11677 12.6828C4.04175 12.6078 3.99961 12.506 3.99961 12.3999V6.96553L2.68281 8.28313C2.6077 8.35824 2.50583 8.40044 2.39961 8.40044C2.29339 8.40044 2.19152 8.35824 2.11641 8.28313C2.0413 8.20803 1.9991 8.10615 1.9991 7.99993C1.9991 7.89371 2.0413 7.79184 2.11641 7.71673L4.11641 5.71673ZM13.9996 6.39922H8.39961C8.29352 6.39922 8.19178 6.35708 8.11677 6.28206C8.04175 6.20705 7.99961 6.10531 7.99961 5.99922C7.99961 5.89313 8.04175 5.79139 8.11677 5.71638C8.19178 5.64136 8.29352 5.59922 8.39961 5.59922H13.9996C14.1057 5.59922 14.2074 5.64136 14.2825 5.71638C14.3575 5.79139 14.3996 5.89313 14.3996 5.99922C14.3996 6.10531 14.3575 6.20705 14.2825 6.28206C14.2074 6.35708 14.1057 6.39922 13.9996 6.39922Z" fill="currentColor"/>
</svg>
