<svg width="30" height="27" viewBox="0 0 30 27" fill="none" xmlns="http://www.w3.org/2000/svg">
<path d="M22.6714 6.00269C22.6714 8.13607 20.942 9.86552 18.8086 9.86552V11.7441C21.9795 11.7441 24.5501 9.1736 24.5501 6.00269H22.6714ZM18.8086 9.86552C16.6752 9.86552 14.9458 8.13607 14.9458 6.00269H13.0672C13.0672 9.1736 15.6377 11.7441 18.8086 11.7441V9.86552ZM14.9458 6.00269C14.9458 3.86931 16.6752 2.13987 18.8086 2.13987V0.261257C15.6377 0.261257 13.0672 2.83178 13.0672 6.00269H14.9458ZM18.8086 2.13987C20.942 2.13987 22.6714 3.86931 22.6714 6.00269H24.5501C24.5501 2.83178 21.9795 0.261257 18.8086 0.261257V2.13987ZM14.0065 16.5463H23.6108V14.6676H14.0065V16.5463ZM23.6108 24.2719H14.0065V26.1505H23.6108V24.2719ZM14.0065 24.2719C11.8731 24.2719 10.1437 22.5425 10.1437 20.4091H8.26506C8.26506 23.58 10.8356 26.1505 14.0065 26.1505V24.2719ZM27.4736 20.4091C27.4736 22.5425 25.7441 24.2719 23.6108 24.2719V26.1505C26.7817 26.1505 29.3522 23.58 29.3522 20.4091H27.4736ZM23.6108 16.5463C25.7441 16.5463 27.4736 18.2757 27.4736 20.4091H29.3522C29.3522 17.2382 26.7817 14.6676 23.6108 14.6676V16.5463ZM14.0065 14.6676C10.8356 14.6676 8.26506 17.2382 8.26506 20.4091H10.1437C10.1437 18.2757 11.8731 16.5463 14.0065 16.5463V14.6676Z" fill="#34495E"/>
<path d="M12.0088 10.2264C11.7563 9.82079 11.2825 9.60426 10.8048 9.60426C8.81568 9.60426 7.20319 7.99177 7.20319 6.00266C7.20319 4.01356 8.81568 2.40107 10.8048 2.40107C11.2825 2.40107 11.7563 2.18453 12.0087 1.77894C12.0199 1.76101 12.0312 1.74312 12.0425 1.72527C12.4628 1.06176 12.2498 0.122295 11.4691 0.0363413C11.251 0.0123271 11.0293 0 10.8048 0C7.48961 0 4.80213 2.68748 4.80213 6.00266C4.80213 9.31784 7.48961 12.0053 10.8048 12.0053C11.0293 12.0053 11.251 11.993 11.4691 11.969C12.2498 11.883 12.4628 10.9436 12.0425 10.2801C12.0312 10.2622 12.0199 10.2443 12.0088 10.2264Z" fill="#34495E"/>
<path d="M7.13643 22.9172C6.95472 22.614 6.63397 22.4099 6.28052 22.4099H6.00266C4.01356 22.4099 2.40106 20.7974 2.40106 18.8083C2.40106 16.8192 4.01356 15.2067 6.00266 15.2067H6.28052C6.63397 15.2067 6.95472 15.0027 7.13643 14.6995C7.57999 13.9595 7.09864 12.8057 6.23587 12.8057H6.00266C2.68748 12.8057 0 15.4932 0 18.8083C0 22.1235 2.68748 24.811 6.00266 24.811H6.23587C7.09864 24.811 7.57999 23.6572 7.13643 22.9172Z" fill="#34495E"/>
</svg>
