<svg viewBox="0 0 16 16" fill="none" xmlns="http://www.w3.org/2000/svg">
<g>
<path d="M13 2.5H3C2.72386 2.5 2.5 2.72386 2.5 3V13C2.5 13.2761 2.72386 13.5 3 13.5H13C13.2761 13.5 13.5 13.2761 13.5 13V3C13.5 2.72386 13.2761 2.5 13 2.5Z" stroke="currentColor" stroke-linecap="round" stroke-linejoin="round"/>
<path d="M6 7C6.55228 7 7 6.55228 7 6C7 5.44772 6.55228 5 6 5C5.44772 5 5 5.44772 5 6C5 6.55228 5.44772 7 6 7Z" stroke="currentColor" stroke-linecap="round" stroke-linejoin="round"/>
<path d="M3.54297 13.4999L10.3961 6.64615C10.4425 6.59967 10.4977 6.56279 10.5584 6.53763C10.6191 6.51246 10.6841 6.49951 10.7498 6.49951C10.8156 6.49951 10.8806 6.51246 10.9413 6.53763C11.002 6.56279 11.0572 6.59967 11.1036 6.64615L13.4998 9.04303" stroke="currentColor" stroke-linecap="round" stroke-linejoin="round"/>
<path d="M8.6665 0.666504V14.9998" stroke="currentColor" stroke-linecap="round" stroke-linejoin="round"/>
</g>
</svg>
