<svg width="27" height="27" viewBox="0 0 27 27" fill="none" xmlns="http://www.w3.org/2000/svg">
<path d="M12.4508 21.7089C12.4508 22.1126 12.778 22.4398 13.1817 22.4398C13.5854 22.4398 13.9126 22.1126 13.9126 21.7089H12.4508ZM13.9126 4.65451C13.9126 4.25084 13.5854 3.92361 13.1817 3.92361C12.778 3.92361 12.4508 4.25084 12.4508 4.65451H13.9126ZM16.3095 8.76797C16.5114 9.11755 16.9584 9.23733 17.3079 9.03549C17.6575 8.83366 17.7773 8.38665 17.5755 8.03706L16.3095 8.76797ZM16.485 7.6101L15.852 7.97555V7.97555L16.485 7.6101ZM12.122 12.7919L12.3743 12.1059L12.3743 12.1059L12.122 12.7919ZM14.2417 13.5715L14.494 12.8856L14.494 12.8856L14.2417 13.5715ZM9.87867 18.7533L9.2457 19.1188V19.1188L9.87867 18.7533ZM10.0542 17.5954C9.85232 17.2459 9.40531 17.1261 9.05572 17.3279C8.70614 17.5298 8.58636 17.9768 8.78819 18.3263L10.0542 17.5954ZM14.7993 20.0718L14.4338 19.4388L14.7993 20.0718ZM11.5644 6.29163L11.9298 6.92461L11.5644 6.29163ZM24.6325 13.1817C24.6325 19.5058 19.5058 24.6325 13.1817 24.6325V26.0943C20.3131 26.0943 26.0943 20.3131 26.0943 13.1817H24.6325ZM13.1817 24.6325C6.8576 24.6325 1.7309 19.5058 1.7309 13.1817H0.269098C0.269098 20.3131 6.05027 26.0943 13.1817 26.0943V24.6325ZM1.7309 13.1817C1.7309 6.8576 6.8576 1.7309 13.1817 1.7309V0.269098C6.05027 0.269098 0.269098 6.05027 0.269098 13.1817H1.7309ZM13.1817 1.7309C19.5058 1.7309 24.6325 6.8576 24.6325 13.1817H26.0943C26.0943 6.05027 20.3131 0.269098 13.1817 0.269098V1.7309ZM17.5755 8.03706L17.118 7.24465L15.852 7.97555L16.3095 8.76797L17.5755 8.03706ZM10.5117 18.3879L10.0542 17.5954L8.78819 18.3263L9.2457 19.1188L10.5117 18.3879ZM13.9894 14.2575C16.2741 15.0979 16.542 18.2216 14.4338 19.4388L15.1647 20.7048C18.3463 18.8679 17.9419 14.1538 14.494 12.8856L13.9894 14.2575ZM11.1989 5.65865C8.01741 7.4955 8.42178 12.2096 11.8697 13.4778L12.3743 12.1059C10.0896 11.2655 9.82164 8.14178 11.9298 6.92461L11.1989 5.65865ZM13.9126 21.7089V20.5505H12.4508V21.7089H13.9126ZM13.9126 20.5505V13.1817H12.4508V20.5505H13.9126ZM14.4338 19.4388C14.0249 19.6749 13.5841 19.7985 13.1451 19.8205L13.2183 21.2805C13.8834 21.2471 14.5505 21.0594 15.1647 20.7048L14.4338 19.4388ZM13.1451 19.8205C12.1012 19.8729 11.0686 19.3525 10.5117 18.3879L9.2457 19.1188C10.0875 20.5767 11.6481 21.3592 13.2183 21.2805L13.1451 19.8205ZM11.8696 13.4778L12.9294 13.8677L13.434 12.4957L12.3743 12.1059L11.8696 13.4778ZM12.9294 13.8677L13.9894 14.2575L14.494 12.8856L13.434 12.4957L12.9294 13.8677ZM13.9126 13.1817L13.9126 5.81296L12.4508 5.81296L12.4508 13.1817H13.9126ZM13.9126 5.81296V4.65451H12.4508V5.81296H13.9126ZM17.118 7.24465C16.2762 5.78658 14.7154 5.00406 13.145 5.08298L13.2184 6.54294C14.2624 6.49048 15.2951 7.01089 15.852 7.97555L17.118 7.24465ZM13.145 5.08298C12.48 5.1164 11.8131 5.30405 11.1989 5.65865L11.9298 6.92461C12.3387 6.68856 12.7794 6.565 13.2184 6.54294L13.145 5.08298Z" fill="#34495E"/>
</svg>
