<svg width="20" height="21" viewBox="0 0 20 21" fill="none" xmlns="http://www.w3.org/2000/svg">
<g>
<path d="M10 6.125V7.375" stroke="currentColor" stroke-linecap="round" stroke-linejoin="round"/>
<path d="M10 13.625V14.875" stroke="currentColor" stroke-linecap="round" stroke-linejoin="round"/>
<path d="M10 18C14.1421 18 17.5 14.6421 17.5 10.5C17.5 6.35786 14.1421 3 10 3C5.85786 3 2.5 6.35786 2.5 10.5C2.5 14.6421 5.85786 18 10 18Z" stroke="currentColor" stroke-linecap="round" stroke-linejoin="round"/>
<path d="M8.125 13.625H10.9375C11.3519 13.625 11.7493 13.4604 12.0424 13.1674C12.3354 12.8743 12.5 12.4769 12.5 12.0625C12.5 11.6481 12.3354 11.2507 12.0424 10.9576C11.7493 10.6646 11.3519 10.5 10.9375 10.5H9.0625C8.6481 10.5 8.25067 10.3354 7.95765 10.0424C7.66462 9.74933 7.5 9.3519 7.5 8.9375C7.5 8.5231 7.66462 8.12567 7.95765 7.83265C8.25067 7.53962 8.6481 7.375 9.0625 7.375H11.875" stroke="currentColor" stroke-linecap="round" stroke-linejoin="round"/>
</g>
</svg>
