<svg width="13" height="13" viewBox="0 0 13 13" fill="none" xmlns="http://www.w3.org/2000/svg">
<circle cx="6.5" cy="6.5" r="5.8" stroke="#6B7083" stroke-width="1.4"/>
<path d="M6 4.61581C6 4.27571 6.27571 4 6.61581 4C6.95592 4 7.23162 4.27571 7.23162 4.61581V8.30268C7.23162 8.64278 6.95592 8.91849 6.61581 8.91849C6.27571 8.91849 6 8.64278 6 8.30268V4.61581Z" fill="#6B7083"/>
<path d="M8.30264 5.84326C8.64275 5.84326 8.91846 6.11897 8.91846 6.45907C8.91846 6.79918 8.64275 7.07489 8.30264 7.07489L4.61578 7.07489C4.27568 7.07489 3.99997 6.79918 3.99997 6.45907C3.99997 6.11897 4.27568 5.84326 4.61578 5.84326L8.30264 5.84326Z" fill="#6B7083"/>
</svg>
