<svg viewBox="0 0 14 14" fill="none" xmlns="http://www.w3.org/2000/svg">
<path d="M7 7.06787V13.4979" stroke="black" stroke-linecap="round" stroke-linejoin="round"/>
<path d="M1.04395 3.80713L7.0002 7.06713L12.9564 3.80713" stroke="black" stroke-linecap="round" stroke-linejoin="round"/>
<path d="M12.74 10.4273L7.24 13.4386C7.16641 13.4789 7.08388 13.5 7 13.5C6.91612 13.5 6.83359 13.4789 6.76 13.4386L1.26 10.4273C1.18147 10.3844 1.11591 10.3211 1.07017 10.2441C1.02444 10.1672 1.0002 10.0794 1 9.98984V4.01109C1.0002 3.92157 1.02444 3.83375 1.07017 3.75679C1.11591 3.67983 1.18147 3.61656 1.26 3.57359L6.76 0.562342C6.83359 0.522079 6.91612 0.500977 7 0.500977C7.08388 0.500977 7.16641 0.522079 7.24 0.562342L12.74 3.57359C12.8185 3.61656 12.8841 3.67983 12.9298 3.75679C12.9756 3.83375 12.9998 3.92157 13 4.01109V9.98859C13 10.0783 12.9759 10.1664 12.9301 10.2436C12.8844 10.3208 12.8187 10.3843 12.74 10.4273Z" stroke="currentColor" stroke-linecap="round" stroke-linejoin="round"/>
</svg>
