<svg width="33" height="27" viewBox="0 0 33 27" fill="none" xmlns="http://www.w3.org/2000/svg">
<path d="M1 5.709C1 4.54569 1.76149 3.51433 2.87975 3.19371C12.772 0.357487 19.1522 0.183921 29.4337 3.18627C30.5433 3.51029 31.2961 4.53766 31.2961 5.69359V21.1941C31.2961 22.0351 30.8901 22.8181 30.1259 23.1691C28.2466 24.0323 23.9504 25.4661 16.1481 25.4661C8.34576 25.4661 4.04958 24.0323 2.17028 23.1691C1.40602 22.8181 1 22.0351 1 21.1941V5.709Z" stroke="#34495E" stroke-width="1.7" stroke-linecap="round"/>
<path d="M1.79712 6.09862C4.72043 6.88115 9.76979 8.4462 16.1479 8.4462C22.5261 8.4462 29.1699 6.09862 30.4987 4.92484" stroke="#34495E" stroke-width="1.7" stroke-linecap="round"/>
<path d="M2.59438 14.3152C5.51769 15.0977 10.567 16.6628 16.9452 16.6628C23.3233 16.6628 29.9672 14.3152 31.296 13.1414" stroke="#34495E" stroke-width="1.7" stroke-linecap="round"/>
</svg>
