<svg viewBox="0 0 11 12" fill="none" xmlns="http://www.w3.org/2000/svg">
<path d="M10.1529 2.36084H0.833496" stroke="currentColor" stroke-linecap="round" stroke-linejoin="round"/>
<path d="M4.22217 4.90283V8.29172" stroke="currentColor" stroke-linecap="round" stroke-linejoin="round"/>
<path d="M6.76416 4.90283V8.29172" stroke="currentColor" stroke-linecap="round" stroke-linejoin="round"/>
<path d="M9.30566 2.36084V10.4095C9.30566 10.5218 9.26103 10.6295 9.18159 10.709C9.10215 10.7884 8.9944 10.8331 8.88205 10.8331H2.10428C1.99193 10.8331 1.88418 10.7884 1.80474 10.709C1.72529 10.6295 1.68066 10.5218 1.68066 10.4095V2.36084" stroke="currentColor" stroke-linecap="round" stroke-linejoin="round"/>
<path d="M7.61111 2.36095V1.51373C7.61111 1.28903 7.52185 1.07353 7.36296 0.91465C7.20408 0.755765 6.98859 0.666504 6.76389 0.666504H4.22222C3.99752 0.666504 3.78203 0.755765 3.62315 0.91465C3.46426 1.07353 3.375 1.28903 3.375 1.51373V2.36095" stroke="currentColor" stroke-linecap="round" stroke-linejoin="round"/>
</svg>
