<svg width="26" height="26" viewBox="0 0 26 26" fill="none" xmlns="http://www.w3.org/2000/svg">
<path d="M9.72717 17.1553C9.44735 17.1572 9.17133 17.0906 8.92316 16.9613C8.67499 16.832 8.4622 16.644 8.30334 16.4137C8.14447 16.1833 8.04436 15.9176 8.01172 15.6397C7.97907 15.3618 8.01489 15.0801 8.11605 14.8192L9.86411 10.3162C9.9941 9.98387 10.1915 9.68206 10.4438 9.42974C10.6961 9.17743 10.9979 8.98006 11.3302 8.85007L15.8333 7.11812C16.144 6.99646 16.4834 6.96803 16.81 7.03631C17.1366 7.10459 17.4362 7.26662 17.6722 7.50256C17.9081 7.7385 18.0701 8.03811 18.1384 8.36472C18.2067 8.69133 18.1783 9.03076 18.0566 9.34146L16.3086 13.8284C16.1786 14.1607 15.9812 14.4625 15.7289 14.7148C15.4766 14.9672 15.1748 15.1645 14.8424 15.2945L10.3394 17.0265C10.145 17.1068 9.93744 17.1505 9.72717 17.1553ZM16.4536 8.70507L11.9505 10.4612C11.8387 10.5041 11.7372 10.57 11.6526 10.6546C11.5679 10.7393 11.502 10.8408 11.4591 10.9526L9.72717 15.4556L14.2222 13.6834C14.3339 13.6405 14.4355 13.5746 14.5201 13.49C14.6048 13.4053 14.6707 13.3038 14.7136 13.192L16.4536 8.70507Z" fill="#34495E"/>
<path d="M12.8889 25.7778C10.3397 25.7778 7.84778 25.0219 5.72821 23.6056C3.60864 22.1894 1.95664 20.1764 0.981114 17.8213C0.00558451 15.4661 -0.249658 12.8746 0.247662 10.3744C0.744983 7.8742 1.97253 5.57762 3.77507 3.77507C5.57762 1.97253 7.8742 0.744983 10.3744 0.247662C12.8746 -0.249658 15.4661 0.00558451 17.8213 0.981114C20.1764 1.95664 22.1894 3.60864 23.6056 5.72821C25.0219 7.84778 25.7778 10.3397 25.7778 12.8889C25.7778 16.3072 24.4199 19.5856 22.0027 22.0027C19.5856 24.4199 16.3072 25.7778 12.8889 25.7778ZM12.8889 1.71584C10.6791 1.71584 8.51888 2.37113 6.68148 3.59884C4.84408 4.82655 3.412 6.57154 2.56634 8.61315C1.72068 10.6548 1.49941 12.9013 1.93053 15.0687C2.36164 17.236 3.42577 19.2269 4.98835 20.7894C6.55093 22.352 8.54178 23.4162 10.7091 23.8473C12.8765 24.2784 15.123 24.0571 17.1646 23.2115C19.2062 22.3658 20.9512 20.9337 22.179 19.0963C23.4067 17.2589 24.062 15.0987 24.062 12.8889C24.0598 9.92627 22.882 7.0856 20.7871 4.99071C18.6922 2.89582 15.8515 1.71797 12.8889 1.71584Z" fill="#34495E"/>
</svg>
