<svg viewBox="0 0 25 24" fill="none" xmlns="http://www.w3.org/2000/svg">
<g>
<path d="M12.875 13.875C13.7034 13.875 14.375 13.2034 14.375 12.375C14.375 11.5466 13.7034 10.875 12.875 10.875C12.0466 10.875 11.375 11.5466 11.375 12.375C11.375 13.2034 12.0466 13.875 12.875 13.875Z" fill="currentColor"/>
<path d="M12.875 7.5C13.7034 7.5 14.375 6.82843 14.375 6C14.375 5.17157 13.7034 4.5 12.875 4.5C12.0466 4.5 11.375 5.17157 11.375 6C11.375 6.82843 12.0466 7.5 12.875 7.5Z" fill="currentColor"/>
<path d="M12.875 20.25C13.7034 20.25 14.375 19.5784 14.375 18.75C14.375 17.9216 13.7034 17.25 12.875 17.25C12.0466 17.25 11.375 17.9216 11.375 18.75C11.375 19.5784 12.0466 20.25 12.875 20.25Z" fill="currentColor"/>
</g>
</svg>
