<svg viewBox="0 0 16 16" fill="none" xmlns="http://www.w3.org/2000/svg">
<path d="M1.59961 3.59922C1.59961 3.49313 1.64175 3.39139 1.71677 3.31638C1.79178 3.24136 1.89352 3.19922 1.99961 3.19922H13.9996C14.1057 3.19922 14.2074 3.24136 14.2825 3.31638C14.3575 3.39139 14.3996 3.49313 14.3996 3.59922C14.3996 3.70531 14.3575 3.80705 14.2825 3.88206C14.2074 3.95708 14.1057 3.99922 13.9996 3.99922H1.99961C1.89352 3.99922 1.79178 3.95708 1.71677 3.88206C1.64175 3.80705 1.59961 3.70531 1.59961 3.59922ZM4.11641 12.6824C4.15357 12.7197 4.19771 12.7492 4.2463 12.7694C4.2949 12.7896 4.347 12.7999 4.39961 12.7999C4.45222 12.7999 4.50432 12.7896 4.55292 12.7694C4.60151 12.7492 4.64565 12.7197 4.68281 12.6824L6.68281 10.6824C6.75792 10.6073 6.80011 10.5054 6.80011 10.3992C6.80011 10.293 6.75792 10.1911 6.68281 10.116C6.6077 10.0409 6.50583 9.99871 6.39961 9.99871C6.29339 9.99871 6.19152 10.0409 6.11641 10.116L4.79961 11.4336V5.99922C4.79961 5.89313 4.75747 5.79139 4.68245 5.71638C4.60744 5.64136 4.5057 5.59922 4.39961 5.59922C4.29352 5.59922 4.19178 5.64136 4.11677 5.71638C4.04175 5.79139 3.99961 5.89313 3.99961 5.99922V11.4336L2.68281 10.116C2.6077 10.0409 2.50583 9.99871 2.39961 9.99871C2.29339 9.99871 2.19152 10.0409 2.11641 10.116C2.0413 10.1911 1.9991 10.293 1.9991 10.3992C1.9991 10.5054 2.0413 10.6073 2.11641 10.6824L4.11641 12.6824ZM13.9996 6.39922H8.39961C8.29352 6.39922 8.19178 6.35708 8.11677 6.28206C8.04175 6.20705 7.99961 6.10531 7.99961 5.99922C7.99961 5.89313 8.04175 5.79139 8.11677 5.71638C8.19178 5.64136 8.29352 5.59922 8.39961 5.59922H13.9996C14.1057 5.59922 14.2074 5.64136 14.2825 5.71638C14.3575 5.79139 14.3996 5.89313 14.3996 5.99922C14.3996 6.10531 14.3575 6.20705 14.2825 6.28206C14.2074 6.35708 14.1057 6.39922 13.9996 6.39922Z" fill="currentColor"/>
</svg>
