<svg viewBox="0 0 14 14" fill="none" xmlns="http://www.w3.org/2000/svg">
<path d="M7 3.5V4.5" stroke="currentColor" stroke-linecap="round" stroke-linejoin="round"/>
<path d="M7 9.5V10.5" stroke="currentColor" stroke-linecap="round" stroke-linejoin="round"/>
<path d="M7 13C10.3137 13 13 10.3137 13 7C13 3.68629 10.3137 1 7 1C3.68629 1 1 3.68629 1 7C1 10.3137 3.68629 13 7 13Z" stroke="currentColor" stroke-linecap="round" stroke-linejoin="round"/>
<path d="M5.5 9.5H7.75C8.08152 9.5 8.39946 9.3683 8.63388 9.13388C8.8683 8.89946 9 8.58152 9 8.25C9 7.91848 8.8683 7.60054 8.63388 7.36612C8.39946 7.1317 8.08152 7 7.75 7H6.25C5.91848 7 5.60054 6.8683 5.36612 6.63388C5.1317 6.39946 5 6.08152 5 5.75C5 5.41848 5.1317 5.10054 5.36612 4.86612C5.60054 4.6317 5.91848 4.5 6.25 4.5H8.5" stroke="currentColor" stroke-linecap="round" stroke-linejoin="round"/>
</svg>
