<svg width="25" height="20" viewBox="0 0 25 20" fill="none" xmlns="http://www.w3.org/2000/svg">
<path d="M24.0783 7.30832C23.6131 6.67501 22.8957 6.31071 22.1111 6.31071H21.517V4.71342C21.517 3.36833 20.4241 2.27544 19.0734 2.27544H11.9445C11.5353 2.27544 11.143 2.11291 10.8516 1.82708L9.73066 0.711777C9.27109 0.252204 8.6602 0 8.01007 0H2.43916C1.09407 0 0.00118336 1.09289 0.00118336 2.44358V16.6623C-0.0156303 17.2059 0.146901 17.744 0.477569 18.1923C0.94835 18.8312 1.67134 19.2011 2.46718 19.2011H19.6115C20.6819 19.2011 21.6179 18.5118 21.943 17.4862L24.4482 9.47727C24.678 8.73187 24.5435 7.94163 24.0783 7.30832ZM0.892305 2.44358C0.892305 1.59169 1.58727 0.896726 2.43355 0.896726H8.01007C8.4192 0.896726 8.80591 1.05926 9.10295 1.34509L10.2239 2.46039C10.6834 2.91996 11.2943 3.17217 11.9445 3.17217H19.079C19.9309 3.17217 20.6259 3.86713 20.6259 4.71342V6.31071H4.93318C3.86271 6.31071 2.92675 7.00007 2.60169 8.02009L0.886701 13.4901V2.44358H0.892305ZM23.5851 9.21386L21.0799 17.2227C20.8781 17.8729 20.284 18.3044 19.6059 18.3044H2.46158C1.95717 18.3044 1.4976 18.069 1.19495 17.6655C0.89791 17.2564 0.808237 16.7464 0.959559 16.2644L3.45358 8.28911C3.65534 7.63899 4.24942 7.20744 4.92757 7.20744H22.1055C22.6043 7.20744 23.0583 7.43722 23.3497 7.83514C23.6523 8.23867 23.7364 8.73748 23.5851 9.21386Z" fill="black"/>
</svg>
