<svg width="15" height="13" viewBox="0 0 15 13" fill="none" xmlns="http://www.w3.org/2000/svg">
<path d="M13.7371 5.13043C13.5953 4.93456 13.4083 4.77581 13.192 4.66766C12.9757 4.55951 12.7365 4.50515 12.4947 4.5092H12.3344V3.50722C12.3344 3.3073 12.2945 3.10937 12.2171 2.92503C12.1397 2.7407 12.0263 2.57366 11.8836 2.4337C11.7408 2.29373 11.5716 2.18366 11.3857 2.10992C11.1999 2.03618 11.0012 2.00026 10.8013 2.00426H7.55492C7.43345 2.00354 7.31556 1.96307 7.21926 1.88903L5.2153 0.325944C4.94102 0.114753 4.60457 0.000254321 4.25841 0.000300645H1.53303C1.33314 -0.00369791 1.13446 0.0322241 0.948632 0.105963C0.7628 0.179702 0.593547 0.289776 0.450785 0.429739C0.308022 0.569703 0.194618 0.736743 0.117214 0.921078C0.0398104 1.10541 -3.82245e-05 1.30334 1.76507e-06 1.50327V10.5211C-0.000433447 10.7984 0.0796224 11.0699 0.230457 11.3026C0.369083 11.523 0.561215 11.7047 0.788966 11.8308C1.01672 11.957 1.27268 12.0234 1.53303 12.024H11.0518C11.3789 12.0322 11.6998 11.9334 11.9656 11.7426C12.2314 11.5518 12.4278 11.2795 12.5247 10.967L13.9576 6.45805C14.0265 6.23485 14.0425 5.99864 14.0042 5.76819C13.966 5.53773 13.8745 5.31937 13.7371 5.13043ZM1.00198 1.50327C1.00186 1.43487 1.01574 1.36717 1.04278 1.30434C1.06981 1.24151 1.10943 1.18489 1.15918 1.13795C1.20893 1.09101 1.26777 1.05476 1.33206 1.03143C1.39636 1.0081 1.46475 0.998175 1.53303 1.00228H4.25841C4.38153 1.00227 4.50124 1.04276 4.59908 1.11751L6.60304 2.68059C6.87541 2.89175 7.21028 3.00631 7.55492 3.00624H10.8013C10.8696 3.00213 10.938 3.01205 11.0023 3.03538C11.0666 3.05872 11.1254 3.09497 11.1752 3.14191C11.2249 3.18884 11.2645 3.24547 11.2916 3.3083C11.3186 3.37113 11.3325 3.43883 11.3324 3.50722V4.5092H3.31655C2.99198 4.50434 2.67456 4.60469 2.41177 4.79523C2.14897 4.98578 1.95493 5.25629 1.85867 5.56629L1.00198 8.28666V1.50327ZM13.0257 6.15746L11.5929 10.6664C11.5607 10.7729 11.494 10.8656 11.4033 10.93C11.3126 10.9944 11.203 11.0268 11.0919 11.0221H1.57311C1.46012 11.0218 1.34993 10.9868 1.25748 10.9219L2.86065 5.86688C2.89281 5.76038 2.9595 5.66762 3.05021 5.60321C3.14092 5.53881 3.25049 5.50643 3.36164 5.51118H12.4947C12.5791 5.5106 12.6625 5.52977 12.7382 5.56718C12.8138 5.60459 12.8797 5.65918 12.9305 5.72661C12.9782 5.78639 13.0116 5.8563 13.0281 5.93099C13.0446 6.00567 13.0438 6.08314 13.0257 6.15746Z" fill="#6B7083"/>
</svg>
