<svg width="76" height="72" viewBox="0 0 76 72" fill="none" xmlns="http://www.w3.org/2000/svg">
<path d="M34.6484 3.77833L34.4581 4.20457L38.8498 6.1654L39.0401 5.73916L43.431 7.69959L43.2407 8.12583L47.6324 10.0867L47.8227 9.66042L52.2144 11.6212L52.0241 12.0475L56.4158 14.0083L56.6061 13.5821L60.9969 15.5425L60.8066 15.9687L63.0029 16.9494C63.8029 17.3067 64.1622 18.2452 63.805 19.0454L62.8773 21.1231L63.3027 21.313L61.4469 25.4693L61.0216 25.2794L59.1655 29.4366L59.5908 29.6265L57.7351 33.7828L57.3098 33.5929L55.454 37.7492L55.8794 37.9391L54.0237 42.0954L53.5983 41.9054L52.6707 43.9832C52.3134 44.7833 51.3748 45.1423 50.5746 44.7852L48.3783 43.8046L48.188 44.2308L43.7972 42.2704L43.9875 41.8442L39.5958 39.8833L39.4055 40.3096L35.0138 38.3488L35.2041 37.9225L30.8124 35.9617L30.6221 36.3879L26.2313 34.4275L26.4216 34.0013L22.0299 32.0404L21.8395 32.4667L17.4478 30.5058L17.6381 30.0796L15.4427 29.0994C14.6927 28.7645 14.3296 27.9191 14.5813 27.1555L14.6407 27.0034L15.5683 24.9257L15.1421 24.7354L16.9978 20.5791L17.4241 20.7694L19.2798 16.6131L18.8535 16.4228L20.7093 12.2665L21.1355 12.4568L22.9916 8.29959L22.5654 8.10928L24.4211 3.95298L24.8473 4.14329L25.775 2.06559C26.1323 1.26538 27.0708 0.906242 27.871 1.26352L30.0664 2.24374L30.2567 1.8175L34.6484 3.77833Z" fill="white" stroke="#6C6C6D" stroke-width="0.933396" stroke-dasharray="4.67 4.67"/>
<path d="M26.1172 22.2207C26.3105 22.3797 26.481 22.5642 26.624 22.7695L26.2422 23.0361C26.3011 23.1208 26.3542 23.2101 26.4014 23.3027V23.3037L27.1738 24.8154L27.5898 24.6035V24.6025L29.1338 27.627L28.7188 27.8398L29.4902 29.3496V29.3506C29.5566 29.4816 29.6317 29.6077 29.7148 29.7275L30.0986 29.4609C30.2413 29.6665 30.4114 29.8516 30.6045 30.0107L30.3076 30.3711C30.4202 30.4639 30.5399 30.549 30.665 30.626C30.7901 30.703 30.9202 30.7714 31.0537 30.8301L31.2402 30.4023C31.4693 30.5031 31.7112 30.5717 31.959 30.6064L31.8955 31.0684C32.0399 31.0886 32.1861 31.0994 32.333 31.0996H34.8223V30.6328H39.8008V31.0996H44.7793V30.6328H49.7568V31.0996H54.7354V30.6328H59.7129V31.0996H62.2021C62.3511 31.0996 62.4987 31.114 62.6426 31.1426L62.7344 30.6855V30.6846C63.085 30.7544 63.4185 30.8933 63.7158 31.0918L63.457 31.4805C63.5791 31.562 63.6944 31.6554 63.7998 31.7607C63.9052 31.8661 63.9985 31.9814 64.0801 32.1035L64.4678 31.8438C64.6669 32.1416 64.8051 32.4758 64.875 32.8271L64.418 32.918C64.4466 33.0619 64.4609 33.2094 64.4609 33.3584V35.4199H64.9277V39.542H64.4609V43.6641H64.9277V47.7861H64.4609V51.9082H64.9277V56.0303H64.4609V60.1523H64.9277V64.2744H64.4609V66.335C64.4609 66.4843 64.4466 66.633 64.418 66.7773L64.875 66.8672C64.8053 67.2187 64.6675 67.5533 64.4688 67.8516L64.0801 67.5928C64.0394 67.6539 63.9959 67.7133 63.9492 67.7705L63.7998 67.9365C63.6944 68.0423 63.5792 68.1367 63.457 68.2188L63.7158 68.6055C63.4185 68.8049 63.0853 68.9447 62.7344 69.0156L62.6416 68.5586C62.4977 68.5876 62.3502 68.603 62.2012 68.6035H59.7236V69.0703H54.7676V68.6035H49.8115V69.0703H44.8555V68.6035H39.8984V69.0703H34.9424V68.6035H29.9863V69.0703H25.0303V68.6035H20.0732V69.0703H15.1172V68.6035H10.1611V69.0703H5.2041V68.6035H2.72754C2.57829 68.603 2.43027 68.5877 2.28613 68.5586L2.19434 69.0156C1.84284 68.9446 1.50863 68.8054 1.21094 68.6055L1.47168 68.2188C1.34949 68.1367 1.23435 68.0423 1.12891 67.9365L0.979492 67.7705C0.932744 67.7133 0.888372 67.6539 0.847656 67.5928L0.458984 67.8516C0.260381 67.5533 0.122413 67.2187 0.0527344 66.8672L0.510742 66.7773C0.496394 66.7051 0.485779 66.6314 0.478516 66.5576L0.467773 66.335V63.7139H0.000976562V58.4717H0.467773V53.2295H0.000976562V47.9873H0.467773V42.7451H0.000976562V37.5029H0.467773V32.2607H0.000976562V27.0186H0.467773V24.3867L0.473633 24.1611L0.0078125 24.126C0.0215264 23.9449 0.0532874 23.7656 0.102539 23.5908L0.551758 23.7178L0.623047 23.5039C0.65058 23.4338 0.681585 23.3647 0.71582 23.2979L0.300781 23.0859C0.383638 22.9241 0.482465 22.7711 0.595703 22.6289L0.959961 22.9199C1.00673 22.8612 1.05681 22.804 1.10938 22.75C1.16188 22.6961 1.21704 22.645 1.27441 22.5967L0.974609 22.2402C1.11363 22.1233 1.26344 22.0198 1.42285 21.9326L1.64648 22.3428L1.84961 22.2441C1.91894 22.2148 1.98989 22.1893 2.06152 22.167L1.92285 21.7207C2.09617 21.6668 2.27453 21.6309 2.45508 21.6123L2.50293 22.0762L2.72754 22.0645H5.43457V21.5977H10.8506V22.0645H16.2666V21.5977H21.6826V22.0645H24.3887L24.5439 22.0703C24.5956 22.074 24.6471 22.0797 24.6982 22.0869L24.7637 21.624C25.0112 21.659 25.2526 21.7285 25.4814 21.8291L25.2939 22.2568C25.3884 22.2984 25.4808 22.3459 25.5693 22.4004C25.6579 22.4549 25.7425 22.5154 25.8223 22.5811L26.1172 22.2207Z" fill="white" stroke="#6C6C6D" stroke-width="0.933396" stroke-dasharray="4.67 4.67"/>
<circle cx="61.7236" cy="59.5" r="11.5" fill="white" stroke="#3F83F9" stroke-width="1.86679" stroke-linecap="round" stroke-linejoin="round"/>
<line x1="62.157" y1="55.9334" x2="62.157" y2="64.0666" stroke="#3F83F9" stroke-width="1.86679" stroke-linecap="round" stroke-linejoin="round"/>
<line x1="58.157" y1="60.0666" x2="66.2902" y2="60.0666" stroke="#3F83F9" stroke-width="1.86679" stroke-linecap="round" stroke-linejoin="round"/>
</svg>
