<svg width="27" height="27" viewBox="0 0 27 27" fill="none" xmlns="http://www.w3.org/2000/svg">
<path d="M3.44681 25.0159L3.91096 24.3771L3.91096 24.3771L3.44681 25.0159ZM2.13363 23.7027L1.49478 24.1669H1.49478L2.13363 23.7027ZM21.2351 23.7027L20.5963 23.2386L21.2351 23.7027ZM19.922 25.0159L19.4578 24.3771V24.3771L19.922 25.0159ZM3.44681 5.91439L2.98266 5.27554H2.98266L3.44681 5.91439ZM2.13363 7.22757L1.49478 6.76342H1.49478L2.13363 7.22757ZM14.0492 5.57892C14.4853 5.58415 14.8431 5.23487 14.8483 4.79878C14.8535 4.36269 14.5042 4.00494 14.0682 3.99971L14.0492 5.57892ZM23.1498 13.0814C23.1446 12.6453 22.7868 12.296 22.3508 12.3012C21.9147 12.3065 21.5654 12.6642 21.5706 13.1003L23.1498 13.0814ZM17.0094 9.41007L16.451 8.85169L16.3069 8.99576L16.2506 9.19154L17.0094 9.41007ZM17.0058 0.225966C16.5697 0.227912 16.2178 0.58303 16.2197 1.01914C16.2217 1.45526 16.5768 1.80722 17.0129 1.80528L17.0058 0.225966ZM19.9561 1.00247L19.9596 1.79213L19.9561 1.00247ZM25.417 6.46338L26.2066 6.46691V6.46691L25.417 6.46338ZM24.6142 9.40654C24.6122 9.84266 24.9642 10.1978 25.4003 10.1997C25.8364 10.2017 26.1915 9.84971 26.1935 9.41359L24.6142 9.40654ZM24.2847 1.60874L24.7679 0.984241V0.984241L24.2847 1.60874ZM24.8107 2.13479L25.4352 1.65149V1.65149L24.8107 2.13479ZM24.538 1.8814L24.0537 1.25772L24.0146 1.28805L23.9797 1.32302L24.538 1.8814ZM14.0587 19.6559L13.7852 20.3967L14.5824 20.6909L14.8175 19.8744L14.0587 19.6559ZM6.93577 17.0266L7.20922 16.2858L6.57421 16.0514L6.24548 16.6431L6.93577 17.0266ZM3.2776 21.9853C3.0658 22.3665 3.20316 22.8473 3.58439 23.0591C3.96563 23.2709 4.44638 23.1335 4.65817 22.7523L3.2776 21.9853ZM11.6844 25.3599C9.44104 25.3599 7.82196 25.3588 6.56646 25.2228C5.32573 25.0883 4.53407 24.8298 3.91096 24.3771L2.98266 25.6548C3.91986 26.3357 5.02124 26.6439 6.39634 26.7929C7.75667 26.9403 9.47622 26.9392 11.6844 26.9392V25.3599ZM0.210338 15.4651C0.210338 17.6733 0.209254 19.3929 0.356636 20.7532C0.505619 22.1283 0.813864 23.2297 1.49478 24.1669L2.77248 23.2386C2.31977 22.6155 2.0612 21.8238 1.92677 20.5831C1.79075 19.3276 1.78966 17.7085 1.78966 15.4651H0.210338ZM3.91096 24.3771C3.47409 24.0596 3.08989 23.6754 2.77248 23.2386L1.49478 24.1669C1.9096 24.7378 2.41171 25.2399 2.98266 25.6548L3.91096 24.3771ZM21.5791 15.4651C21.5791 17.7085 21.578 19.3276 21.442 20.5831C21.3076 21.8238 21.049 22.6155 20.5963 23.2386L21.874 24.1669C22.5549 23.2297 22.8632 22.1283 23.0121 20.7532C23.1595 19.3929 23.1584 17.6733 23.1584 15.4651H21.5791ZM11.6844 26.9392C13.8926 26.9392 15.6121 26.9403 16.9724 26.7929C18.3475 26.6439 19.4489 26.3357 20.3861 25.6548L19.4578 24.3771C18.8347 24.8298 18.043 25.0883 16.8023 25.2228C15.5468 25.3588 13.9277 25.3599 11.6844 25.3599V26.9392ZM20.5963 23.2386C20.2789 23.6754 19.8947 24.0596 19.4578 24.3771L20.3861 25.6548C20.9571 25.2399 21.4592 24.7378 21.874 24.1669L20.5963 23.2386ZM11.6844 3.9911C9.47622 3.9911 7.75667 3.99002 6.39634 4.1374C5.02124 4.28638 3.91986 4.59463 2.98266 5.27554L3.91096 6.55324C4.53407 6.10053 5.32573 5.84196 6.56646 5.70753C7.82196 5.57151 9.44104 5.57042 11.6844 5.57042V3.9911ZM1.78966 15.4651C1.78966 13.2218 1.79075 11.6027 1.92677 10.3472C2.0612 9.10649 2.31977 8.31483 2.77248 7.69173L1.49478 6.76342C0.813864 7.70062 0.505619 8.802 0.356636 10.1771C0.209254 11.5374 0.210338 13.257 0.210338 15.4651H1.78966ZM2.98266 5.27554C2.41171 5.69036 1.9096 6.19247 1.49478 6.76342L2.77248 7.69173C3.08989 7.25485 3.47409 6.87065 3.91096 6.55324L2.98266 5.27554ZM11.6844 5.57042C12.5588 5.57042 13.3412 5.57044 14.0492 5.57892L14.0682 3.99971C13.3488 3.99109 12.5563 3.9911 11.6844 3.9911V5.57042ZM23.1584 15.4651C23.1584 14.5933 23.1584 13.8007 23.1498 13.0814L21.5706 13.1003C21.5791 13.8083 21.5791 14.5908 21.5791 15.4651H23.1584ZM17.0129 1.80528L19.9596 1.79213L19.9525 0.212819L17.0058 0.225966L17.0129 1.80528ZM24.6273 6.45986L24.6142 9.40654L26.1935 9.41359L26.2066 6.46691L24.6273 6.45986ZM19.9596 1.79213C21.1531 1.7868 21.9815 1.7843 22.6145 1.85342C23.2315 1.92081 23.5619 2.04795 23.8014 2.23323L24.7679 0.984241C24.2037 0.547537 23.5448 0.366302 22.7859 0.283432C22.043 0.202297 21.1089 0.20766 19.9525 0.212819L19.9596 1.79213ZM26.2066 6.46691C26.2118 5.31051 26.2171 4.37649 26.136 3.63353C26.0531 2.87469 25.8719 2.21579 25.4352 1.65149L24.1862 2.61808C24.3715 2.8575 24.4986 3.18794 24.566 3.80498C24.6351 4.43791 24.6326 5.26633 24.6273 6.45986L26.2066 6.46691ZM17.5677 9.96844L25.0964 2.43977L23.9797 1.32302L16.451 8.85169L17.5677 9.96844ZM23.8014 2.23323C23.8743 2.28968 23.9435 2.35069 24.0084 2.41586L25.1269 1.30089C25.0143 1.18788 24.8944 1.0821 24.7679 0.984241L23.8014 2.23323ZM24.0084 2.41586C24.0718 2.47942 24.1312 2.54695 24.1862 2.61808L25.4352 1.65149C25.3398 1.52818 25.2368 1.4111 25.1269 1.30089L24.0084 2.41586ZM25.0224 2.50507L25.052 2.48206L24.0833 1.2347L24.0537 1.25772L25.0224 2.50507ZM16.2506 9.19154L13.2999 19.4373L14.8175 19.8744L17.7682 9.6286L16.2506 9.19154ZM14.3322 18.9151L7.20922 16.2858L6.66232 17.7674L13.7852 20.3967L14.3322 18.9151ZM6.24548 16.6431L3.2776 21.9853L4.65817 22.7523L7.62606 17.4101L6.24548 16.6431Z" fill="#34495E"/>
</svg>
