<svg width="24" height="24" viewBox="0 0 24 24" fill="none" xmlns="http://www.w3.org/2000/svg">
<path d="M6.3031 10.9333C3.47393 15.1566 6.37016 17.9768 8.87506 19.3339C9.0825 19.4463 9.58059 18.87 9.51086 18.6446C8.90891 16.6988 9.23755 13.6 10.0546 13.6C11.1264 13.6 11.1264 15.2 12.1982 15.2C13.0104 15.2 13.5662 12.3291 13.7744 10.6662C13.7911 10.5332 13.9309 10.4532 14.0484 10.5176C16.4859 11.8514 15.8701 16.3984 15.3443 19.1756C15.2918 19.4526 15.6093 19.6391 15.815 19.4463C21.9774 13.6682 15.799 6.94051 11.3089 4.11334C11.2098 4.05096 11.0807 4.08882 11.0215 4.18981C10.3441 5.34491 7.64568 9.0962 6.3031 10.9333Z" stroke="black"/>
</svg>
