<svg width="24" height="24" viewBox="0 0 24 24" fill="none" xmlns="http://www.w3.org/2000/svg">
<path d="M10 4.5H9.75C9.33579 4.5 9 4.16421 9 3.75C9 3.33579 9.33579 3 9.75 3H13.75C14.1642 3 14.5 3.33579 14.5 3.75C14.5 4.16421 14.1642 4.5 13.75 4.5H13.5M10 4.5V7.5M10 4.5H13.5M10 7.5H8C7.44772 7.5 7 7.94772 7 8.5V12.5M10 7.5H13.5M13.5 7.5H16C16.5523 7.5 17 7.94772 17 8.5V12.5M13.5 7.5V4.5M10 19H8C7.44772 19 7 18.5523 7 18V14.5M10 19V20.5M10 19H14M10 20.5H8M10 20.5H14M16 20.5H14M14 20.5V19M14 19H16C16.5523 19 17 18.5523 17 18V14.5M7 12.5H17M7 12.5V14.5M17 12.5V14.5M17 14.5H7" stroke="black"/>
</svg>
