<svg viewBox="0 0 13 18" fill="none" xmlns="http://www.w3.org/2000/svg">
<path d="M11.4997 0.666748C11.083 1.16675 10.6663 1.66675 10.6663 2.75008C10.6663 4.83341 12.333 4.83341 12.333 6.91675C12.333 8.00008 11.9163 8.50008 11.4997 9.00008C11.083 9.50008 10.6663 10.0001 10.6663 11.0834C10.6663 13.1667 12.333 13.1667 12.333 15.2501C12.333 16.3334 11.9163 16.8334 11.4997 17.3334M1.49967 0.666748C1.08301 1.16675 0.666341 1.66675 0.666341 2.75008C0.666341 4.83341 2.33301 4.83341 2.33301 6.91675C2.33301 8.00008 1.91634 8.50008 1.49967 9.00008C1.08301 9.50008 0.666341 10.0001 0.666341 11.0834C0.666341 13.1667 2.33301 13.1667 2.33301 15.2501C2.33301 16.3334 1.91634 16.8334 1.49967 17.3334M6.49967 0.666748C6.08301 1.16675 5.66634 1.66675 5.66634 2.75008C5.66634 4.83341 7.33301 4.83341 7.33301 6.91675C7.33301 8.00008 6.91634 8.50008 6.49967 9.00008C6.08301 9.50008 5.66634 10.0001 5.66634 11.0834C5.66634 13.1667 7.33301 13.1667 7.33301 15.2501C7.33301 16.3334 6.91634 16.8334 6.49967 17.3334" stroke="currentColor" stroke-linecap="round" stroke-linejoin="round"/>
</svg>
