<svg viewBox="0 0 18 18" fill="none" xmlns="http://www.w3.org/2000/svg">
<path d="M5.25 13.05V11.7C5.25 11.3817 5.37643 11.0765 5.60147 10.8515C5.82652 10.6264 6.13174 10.5 6.45 10.5H9.3C9.61826 10.5 9.92348 10.6264 10.1485 10.8515C10.3736 11.0765 10.5 11.3817 10.5 11.7V13.05C10.5 13.3683 10.3736 13.6735 10.1485 13.8985C9.92348 14.1236 9.61826 14.25 9.3 14.25H6.45C6.13174 14.25 5.82652 14.1236 5.60147 13.8985C5.37643 13.6735 5.25 13.3683 5.25 13.05ZM5.25 6.3V4.95C5.25 4.63174 5.37643 4.32652 5.60147 4.10147C5.82652 3.87643 6.13174 3.75 6.45 3.75H15.3C15.6183 3.75 15.9235 3.87643 16.1485 4.10147C16.3736 4.32652 16.5 4.63174 16.5 4.95V6.3C16.5 6.61826 16.3736 6.92348 16.1485 7.14853C15.9235 7.37357 15.6183 7.5 15.3 7.5H6.45C6.13174 7.5 5.82652 7.37357 5.60147 7.14853C5.37643 6.92348 5.25 6.61826 5.25 6.3Z" fill="currentColor"/>
<path fill-rule="evenodd" clip-rule="evenodd" d="M2.25 0.75C2.05109 0.75 1.86032 0.829018 1.71967 0.96967C1.57902 1.11032 1.5 1.30109 1.5 1.5V16.5C1.5 16.6989 1.57902 16.8897 1.71967 17.0303C1.86032 17.171 2.05109 17.25 2.25 17.25C2.44891 17.25 2.63968 17.171 2.78033 17.0303C2.92098 16.8897 3 16.6989 3 16.5V1.5C3 1.30109 2.92098 1.11032 2.78033 0.96967C2.63968 0.829018 2.44891 0.75 2.25 0.75Z" fill="currentColor"/>
</svg>
