<svg width="25" height="24" viewBox="0 0 25 24" fill="none" xmlns="http://www.w3.org/2000/svg">
<path d="M2.51727 16.0853L3.02047 15.9218L2.51727 16.0853ZM1.31793 9.42373L1.82678 9.56867L1.31793 9.42373ZM6.32612 4.36284L6.01512 3.93479L6.32612 4.36284ZM1.44028 9.04718L1.93715 9.22902L1.44028 9.04718ZM5.78285 22.4122L5.48776 22.8514L5.78285 22.4122ZM5.46254 22.1795L5.13606 22.5959L5.46254 22.1795ZM22.4607 16.0853L21.9575 15.9218L22.4607 16.0853ZM19.5154 22.1795L19.8419 22.5959L19.5154 22.1795ZM19.1951 22.4122L19.4902 22.8514L19.1951 22.4122ZM18.6518 4.36284L18.9628 3.93479L18.6518 4.36284ZM23.5377 9.04718L23.0408 9.22902L23.5377 9.04718ZM23.66 9.42373L23.1511 9.56867L23.66 9.42373ZM12.6869 1.16366L12.6675 1.69241L12.6869 1.16366ZM12.291 1.16366L12.3104 1.69241L12.291 1.16366ZM10.329 17.7162C10.0368 17.7162 9.79987 17.9531 9.79987 18.2453C9.79987 18.5375 10.0368 18.7744 10.329 18.7744V17.7162ZM14.649 18.7744C14.9412 18.7744 15.1781 18.5375 15.1781 18.2453C15.1781 17.9531 14.9412 17.7162 14.649 17.7162V18.7744ZM3.02047 15.9218C2.46686 14.2179 2.06532 12.9798 1.85385 11.9699C1.64494 10.9722 1.63346 10.2474 1.82678 9.56867L0.80907 9.27879C0.551552 10.1829 0.589687 11.0959 0.818122 12.1868C1.04401 13.2656 1.46756 14.5668 2.01407 16.2488L3.02047 15.9218ZM6.01512 3.93479C4.58435 4.97431 3.47684 5.77807 2.66002 6.51803C1.83399 7.26632 1.26647 7.98256 0.943407 8.86534L1.93715 9.22902C2.17968 8.56629 2.61501 7.98664 3.37046 7.30228C4.13512 6.60958 5.18773 5.84392 6.63712 4.79089L6.01512 3.93479ZM1.82678 9.56867C1.85941 9.45414 1.89622 9.34085 1.93715 9.22902L0.943407 8.86534C0.893589 9.00147 0.84878 9.13937 0.80907 9.27879L1.82678 9.56867ZM12.489 22.801C10.6974 22.801 9.3958 22.8003 8.37003 22.6894C7.3566 22.5797 6.6637 22.3667 6.07794 21.9731L5.48776 22.8514C6.26801 23.3757 7.14813 23.6216 8.25623 23.7414C9.352 23.8599 10.7204 23.8592 12.489 23.8592V22.801ZM2.01407 16.2488C2.56058 17.9307 2.98276 19.2324 3.43409 20.2379C3.89051 21.2548 4.39632 22.0158 5.13606 22.5959L5.78901 21.7632C5.23368 21.3277 4.81692 20.7346 4.3995 19.8046C3.977 18.8633 3.57409 17.6256 3.02047 15.9218L2.01407 16.2488ZM6.07794 21.9731C5.9791 21.9067 5.88272 21.8366 5.78901 21.7632L5.13606 22.5959C5.25013 22.6853 5.36744 22.7706 5.48776 22.8514L6.07794 21.9731ZM21.9575 15.9218C21.4038 17.6256 21.0009 18.8633 20.5784 19.8046C20.161 20.7346 19.7443 21.3277 19.1889 21.7632L19.8419 22.5959C20.5816 22.0158 21.0874 21.2548 21.5438 20.2379C21.9952 19.2324 22.4174 17.9307 22.9639 16.2488L21.9575 15.9218ZM12.489 23.8592C14.2575 23.8592 15.6259 23.8599 16.7217 23.7414C17.8298 23.6216 18.7099 23.3757 19.4902 22.8514L18.9 21.9731C18.3142 22.3667 17.6213 22.5797 16.6079 22.6894C15.5821 22.8003 14.2805 22.801 12.489 22.801V23.8592ZM19.1889 21.7632C19.0952 21.8366 18.9988 21.9067 18.9 21.9731L19.4902 22.8514C19.6105 22.7706 19.7278 22.6853 19.8419 22.5959L19.1889 21.7632ZM18.3408 4.79089C19.7902 5.84392 20.8428 6.60958 21.6075 7.30228C22.3629 7.98664 22.7983 8.56629 23.0408 9.22902L24.0345 8.86534C23.7115 7.98256 23.1439 7.26632 22.3179 6.51803C21.5011 5.77807 20.3936 4.97431 18.9628 3.93479L18.3408 4.79089ZM22.9639 16.2488C23.5104 14.5668 23.9339 13.2656 24.1598 12.1868C24.3882 11.0959 24.4264 10.1829 24.1689 9.27879L23.1511 9.56867C23.3445 10.2474 23.333 10.9722 23.1241 11.9699C22.9126 12.9798 22.5111 14.2179 21.9575 15.9218L22.9639 16.2488ZM23.0408 9.22902C23.0817 9.34084 23.1185 9.45414 23.1511 9.56867L24.1689 9.27879C24.1292 9.13938 24.0843 9.00147 24.0345 8.86534L23.0408 9.22902ZM18.9628 3.93479C17.532 2.89527 16.4254 2.09034 15.4692 1.54216C14.5023 0.987792 13.6457 0.669384 12.7063 0.634922L12.6675 1.69241C13.3728 1.71828 14.0586 1.95318 14.9429 2.46018C15.838 2.97335 16.8914 3.73785 18.3408 4.79089L18.9628 3.93479ZM6.63712 4.79089C8.0865 3.73785 9.13996 2.97335 10.035 2.46018C10.9194 1.95318 11.6052 1.71828 12.3104 1.69241L12.2716 0.634922C11.3322 0.669384 10.4756 0.987792 9.50872 1.54216C8.55256 2.09034 7.4459 2.89527 6.01512 3.93479L6.63712 4.79089ZM12.7063 0.634922C12.5615 0.629608 12.4165 0.629608 12.2716 0.634922L12.3104 1.69241C12.4294 1.68804 12.5485 1.68804 12.6675 1.69241L12.7063 0.634922ZM10.329 18.7744H14.649V17.7162H10.329V18.7744Z" fill="#34495E"/>
</svg>
