<svg width="29" height="29" viewBox="0 0 29 29" fill="none" xmlns="http://www.w3.org/2000/svg">
<mask id="mask0_202_271" style="mask-type:alpha" maskUnits="userSpaceOnUse" x="0" y="0" width="29" height="29">
<rect width="28.8361" height="28.8361" fill="#C4C4C4"/>
</mask>
<g mask="url(#mask0_202_271)">
<path d="M7.82434 5.72746C10.9004 3.4926 12.4384 2.37517 14.1949 2.31073C14.3358 2.30556 14.4768 2.30556 14.6177 2.31073C16.3742 2.37517 17.9122 3.4926 20.9882 5.72746C24.0642 7.96232 25.6023 9.07975 26.2063 10.7303C26.2548 10.8628 26.2984 10.9969 26.337 11.1325C26.8185 12.8229 26.231 14.631 25.0561 18.2471C23.8812 21.8631 23.2937 23.6712 21.9105 24.7557C21.7996 24.8427 21.6855 24.9256 21.5684 25.0043C20.1095 25.9846 18.2085 25.9846 14.4063 25.9846C10.6041 25.9846 8.70302 25.9846 7.24413 25.0043C7.1271 24.9256 7.01299 24.8427 6.90203 24.7557C5.51888 23.6712 4.93142 21.8631 3.75648 18.2471C2.58154 14.631 1.99408 12.8229 2.47558 11.1325C2.5142 10.9969 2.55779 10.8628 2.60625 10.7303C3.21031 9.07975 4.74832 7.96232 7.82434 5.72746Z" fill="#3F83F9"/>
<path d="M12.2626 20.4376H17.0314" stroke="white" stroke-width="1.36251" stroke-linecap="round" stroke-linejoin="round"/>
</g>
</svg>
