<svg viewBox="0 0 14 10" fill="none" xmlns="http://www.w3.org/2000/svg">
<path fill-rule="evenodd" clip-rule="evenodd" d="M13.75 5.00015C13.75 5.19907 13.6709 5.38983 13.5303 5.53048C13.3896 5.67114 13.1989 5.75015 13 5.75015L2.80995 5.75015L5.52995 8.47015C5.66243 8.61233 5.73455 8.80038 5.73113 8.99468C5.7277 9.18898 5.64899 9.37436 5.51157 9.51178C5.37416 9.64919 5.18877 9.7279 4.99447 9.73133C4.80017 9.73476 4.61213 9.66263 4.46995 9.53015L0.46995 5.53015C0.3295 5.38953 0.25061 5.1989 0.25061 5.00015C0.25061 4.8014 0.3295 4.61078 0.469951 4.47015L4.46995 0.470154C4.61213 0.337674 4.80017 0.26555 4.99447 0.268978C5.18877 0.272407 5.37416 0.351119 5.51157 0.488532C5.64899 0.625945 5.7277 0.811331 5.73113 1.00563C5.73455 1.19993 5.66243 1.38798 5.52995 1.53015L2.80995 4.25015L13 4.25015C13.1989 4.25015 13.3896 4.32917 13.5303 4.46982C13.6709 4.61048 13.75 4.80124 13.75 5.00015Z" fill="currentColor"/>
</svg>
