<svg width="14" height="14" viewBox="0 0 14 14" fill="none" xmlns="http://www.w3.org/2000/svg">
<path d="M4.66797 5.25H9.33464" stroke="black" stroke-linecap="round" stroke-linejoin="round"/>
<path d="M4.66797 7.58301H8.16797" stroke="black" stroke-linecap="round" stroke-linejoin="round"/>
<path d="M10.5 2.33301C10.9641 2.33301 11.4092 2.51738 11.7374 2.84557C12.0656 3.17376 12.25 3.61888 12.25 4.08301V8.74967C12.25 9.2138 12.0656 9.65892 11.7374 9.98711C11.4092 10.3153 10.9641 10.4997 10.5 10.4997H7.58333L4.66667 12.2497V10.4997H3.5C3.03587 10.4997 2.59075 10.3153 2.26256 9.98711C1.93437 9.65892 1.75 9.2138 1.75 8.74967V4.08301C1.75 3.61888 1.93437 3.17376 2.26256 2.84557C2.59075 2.51738 3.03587 2.33301 3.5 2.33301H10.5Z" stroke="black" stroke-linecap="round" stroke-linejoin="round"/>
<circle cx="11.5" cy="2.5" r="2.5" fill="#3F83F9"/>
</svg>
