<svg viewBox="0 0 14 14" fill="none" xmlns="http://www.w3.org/2000/svg">
<path d="M4.6665 5.25H9.33317" stroke="currentColor" stroke-linecap="round" stroke-linejoin="round"/>
<path d="M4.6665 7.58325H8.1665" stroke="currentColor" stroke-linecap="round" stroke-linejoin="round"/>
<path d="M10.5 2.33325C10.9641 2.33325 11.4092 2.51763 11.7374 2.84582C12.0656 3.174 12.25 3.61912 12.25 4.08325V8.74992C12.25 9.21405 12.0656 9.65917 11.7374 9.98736C11.4092 10.3155 10.9641 10.4999 10.5 10.4999H7.58333L4.66667 12.2499V10.4999H3.5C3.03587 10.4999 2.59075 10.3155 2.26256 9.98736C1.93437 9.65917 1.75 9.21405 1.75 8.74992V4.08325C1.75 3.61912 1.93437 3.174 2.26256 2.84582C2.59075 2.51763 3.03587 2.33325 3.5 2.33325H10.5Z" stroke="currentColor" stroke-linecap="round" stroke-linejoin="round"/>
</svg>
