<svg viewBox="0 0 14 15" fill="none" xmlns="http://www.w3.org/2000/svg">
<path d="M13 0.5C13.5523 0.5 14 0.947715 14 1.5V13.5C14 14.0523 13.5523 14.5 13 14.5H1C0.447715 14.5 2.41598e-08 14.0523 0 13.5V8H8.29395L5.81348 10.4805C5.61866 10.6758 5.61836 10.9924 5.81348 11.1875C6.0086 11.3825 6.32525 11.3823 6.52051 11.1875L9.85449 7.85352C10.0494 7.65827 10.0495 7.34165 9.85449 7.14648L6.52051 3.81348C6.32523 3.61838 6.00868 3.61827 5.81348 3.81348C5.61855 4.00871 5.61847 4.32533 5.81348 4.52051L8.29395 7H0V1.5C1.93278e-07 0.947715 0.447715 0.5 1 0.5H13Z" fill="currentColor"/>
</svg>
