<svg width="20" height="20" viewBox="0 0 20 20" fill="none" xmlns="http://www.w3.org/2000/svg">
<path d="M16 3C16.5523 3 17 3.44772 17 4V16C17 16.5523 16.5523 17 16 17H4C3.44772 17 3 16.5523 3 16V10.5H11.2939L8.81348 12.9805C8.61866 13.1758 8.61836 13.4924 8.81348 13.6875C9.0086 13.8825 9.32525 13.8823 9.52051 13.6875L12.8545 10.3535C13.0494 10.1583 13.0495 9.84165 12.8545 9.64648L9.52051 6.31348C9.32523 6.11838 9.00868 6.11827 8.81348 6.31348C8.61855 6.50871 8.61847 6.82533 8.81348 7.02051L11.2939 9.5H3V4C3 3.44772 3.44772 3 4 3H16Z" fill="#6C6C6D"/>
</svg>
