<svg width="72" height="72" viewBox="0 0 72 72" fill="none" xmlns="http://www.w3.org/2000/svg">
<g clip-path="url(#clip0_10941_25362)">
<mask id="path-1-inside-1_10941_25362" fill="white">
<path d="M27 54C27 56.3869 27.9482 58.6761 29.636 60.364C31.3239 62.0518 33.6131 63 36 63C38.3869 63 40.6761 62.0518 42.364 60.364C44.0518 58.6761 45 56.3869 45 54"/>
</mask>
<path d="M27 54C27 56.3869 27.9482 58.6761 29.636 60.364C31.3239 62.0518 33.6131 63 36 63C38.3869 63 40.6761 62.0518 42.364 60.364C44.0518 58.6761 45 56.3869 45 54" fill="white"/>
<path d="M42.364 60.364L42.6367 60.6367L42.364 60.364ZM27 54H26.6144C26.6144 54.6193 26.6756 55.2324 26.7947 55.8311L27.1729 55.7558L27.5511 55.6806C27.4418 55.1311 27.3856 54.5685 27.3856 54H27ZM28.5167 59.0001L28.1961 59.2144C28.5352 59.7219 28.9254 60.1987 29.3633 60.6367L29.636 60.364L29.9087 60.0913C29.5068 59.6893 29.1486 59.2517 28.8374 58.7859L28.5167 59.0001ZM29.636 60.364L29.3633 60.6367C29.8013 61.0746 30.2781 61.4648 30.7856 61.8039L30.9999 61.4833L31.2141 61.1626C30.7483 60.8514 30.3107 60.4932 29.9087 60.0913L29.636 60.364ZM34.2442 62.8271L34.1689 63.2053C34.7676 63.3244 35.3807 63.3856 36 63.3856V63V62.6144C35.4315 62.6144 34.8689 62.5582 34.3194 62.4489L34.2442 62.8271ZM36 63V63.3856C36.6193 63.3856 37.2324 63.3244 37.8311 63.2053L37.7558 62.8271L37.6806 62.4489C37.1311 62.5582 36.5685 62.6144 36 62.6144V63ZM41.0001 61.4833L41.2144 61.8039C41.7219 61.4648 42.1987 61.0746 42.6367 60.6367L42.364 60.364L42.0913 60.0913C41.6893 60.4932 41.2517 60.8514 40.7859 61.1626L41.0001 61.4833ZM42.364 60.364L42.6367 60.6367C43.0746 60.1987 43.4648 59.7219 43.8039 59.2144L43.4833 59.0001L43.1626 58.7859C42.8514 59.2517 42.4932 59.6893 42.0913 60.0913L42.364 60.364ZM44.8271 55.7558L45.2053 55.8311C45.3244 55.2324 45.3856 54.6193 45.3856 54H45H44.6144C44.6144 54.5685 44.5582 55.1311 44.4489 55.6806L44.8271 55.7558ZM42.364 60.364L42.9093 60.9093L42.364 60.364ZM27 54H26.2287C26.2287 54.6448 26.2924 55.283 26.4164 55.9063L27.1729 55.7558L27.9294 55.6053C27.825 55.0805 27.7713 54.5431 27.7713 54H27ZM28.5167 59.0001L27.8754 59.4286C28.2285 59.957 28.6347 60.4534 29.0907 60.9093L29.636 60.364L30.1814 59.8186C29.7974 59.4346 29.4553 59.0166 29.1581 58.5716L28.5167 59.0001ZM29.636 60.364L29.0907 60.9093C29.5466 61.3653 30.043 61.7715 30.5714 62.1246L30.9999 61.4833L31.4283 60.8419C30.9834 60.5447 30.5654 60.2026 30.1814 59.8186L29.636 60.364ZM34.2442 62.8271L34.0937 63.5836C34.717 63.7076 35.3552 63.7713 36 63.7713V63V62.2287C35.4569 62.2287 34.9195 62.175 34.3947 62.0706L34.2442 62.8271ZM36 63V63.7713C36.6448 63.7713 37.283 63.7076 37.9063 63.5836L37.7558 62.8271L37.6053 62.0706C37.0805 62.175 36.5431 62.2287 36 62.2287V63ZM41.0001 61.4833L41.4286 62.1246C41.957 61.7715 42.4534 61.3653 42.9093 60.9093L42.364 60.364L41.8186 59.8186C41.4346 60.2026 41.0166 60.5447 40.5716 60.8419L41.0001 61.4833ZM42.364 60.364L42.9093 60.9093C43.3653 60.4534 43.7715 59.957 44.1246 59.4286L43.4833 59.0001L42.8419 58.5716C42.5447 59.0166 42.2026 59.4346 41.8186 59.8186L42.364 60.364ZM44.8271 55.7558L45.5836 55.9063C45.7076 55.283 45.7713 54.6448 45.7713 54H45H44.2287C44.2287 54.5431 44.175 55.0805 44.0706 55.6053L44.8271 55.7558Z" fill="#6C6C6D" mask="url(#path-1-inside-1_10941_25362)"/>
<path d="M36 9.38574C37.3109 9.38574 38.609 9.51554 39.876 9.76758L40.2539 9.84277L40.3281 9.46875C42.6721 9.98164 44.9066 10.9074 46.9268 12.2021L46.7158 12.5195L47.0361 12.7334C48.1102 13.4511 49.119 14.2772 50.0459 15.2041C50.9728 16.131 51.7989 17.1398 52.5166 18.2139L52.7314 18.5342L53.0469 18.3223C54.3418 20.3424 55.2672 22.5769 55.7803 24.9209L55.4072 24.9961L55.4824 25.375C55.7344 26.6419 55.8643 27.9392 55.8643 29.25C55.8643 30.1884 55.8848 31.1098 55.9229 32.0117L55.9385 32.3975L56.3262 32.3799C56.405 34.0195 56.5424 35.5926 56.7256 37.085L56.3418 37.1348L56.3906 37.5176C56.6449 39.4869 56.977 41.3125 57.3545 42.9609L57.4414 43.3369L57.8184 43.25C58.2286 44.9803 58.6881 46.5026 59.1562 47.7754L58.7939 47.915L58.9316 48.2744C59.3236 49.2964 59.7221 50.1534 60.1064 50.8174C60.1472 50.888 60.1838 50.9613 60.2148 51.0361L60.3076 51.2617L60.3408 51.5059C60.3514 51.5859 60.3564 51.6668 60.3564 51.748C60.3565 51.8295 60.3513 51.9109 60.3408 51.9912L60.3086 52.2334L60.2158 52.4609C60.2004 52.4982 60.1838 52.535 60.166 52.5713L60.1084 52.6797C60.0881 52.715 60.0664 52.7494 60.0439 52.7832L59.9736 52.8818L59.8232 53.0781L59.6309 53.2266C59.5988 53.2513 59.5659 53.2752 59.5322 53.2979L59.4287 53.3623C59.3583 53.4032 59.2856 53.4395 59.2109 53.4707L58.9844 53.5645L58.7412 53.5977C58.6612 53.6084 58.5803 53.614 58.499 53.6143H54.3643V54H47.6357V53.6143H39.3643V54H32.6357V53.6143H24.3643V54H17.6357V53.6143H13.5029C13.4215 53.6138 13.3399 53.6077 13.2598 53.5967L13.0186 53.5635L12.792 53.4688L12.6816 53.418C12.6453 53.3999 12.6094 53.3809 12.5742 53.3604L12.4707 53.2959C12.4372 53.2733 12.4049 53.2492 12.373 53.2246L12.1787 53.0742L12.0303 52.8799C11.9814 52.8157 11.9369 52.7481 11.8965 52.6777L11.8389 52.5693C11.8211 52.5331 11.8044 52.4962 11.7891 52.459L11.6963 52.2344L11.665 51.9902L11.6533 51.8691L11.6494 51.7471C11.6495 51.7063 11.6506 51.6656 11.6533 51.625L11.666 51.5049L11.6982 51.2607L11.792 51.0361C11.823 50.9614 11.8577 50.8879 11.8984 50.8174L11.8994 50.8184C12.1873 50.3203 12.4831 49.7134 12.7783 49.0098L13.0732 48.2744L13.2109 47.9141L12.8467 47.7744C13.3141 46.5015 13.7729 44.9793 14.1826 43.249L14.5615 43.3359L14.6475 42.96C15.0245 41.3115 15.3554 39.4857 15.6094 37.5166L15.6592 37.1338L15.2744 37.084C15.4574 35.5918 15.5951 34.019 15.6738 32.3799L16.0615 32.3965L16.0781 32.0117C16.1161 31.1098 16.1357 30.1884 16.1357 29.25C16.1357 28.1031 16.2351 26.9665 16.4287 25.8516L16.5176 25.375L16.5928 24.9961L16.2188 24.9209C16.7317 22.577 17.6574 20.3423 18.9521 18.3223L19.2695 18.5342L19.4834 18.2139C20.1113 17.2741 20.8225 16.3844 21.6113 15.5557L21.9541 15.2041C22.7651 14.3931 23.6391 13.6593 24.5645 13.0078L24.9639 12.7334L25.2852 12.5195L25.0723 12.2021C27.0923 10.9074 29.327 9.98177 31.6709 9.46875L31.7461 9.84277L32.125 9.76758C33.3919 9.51557 34.6892 9.38575 36 9.38574Z" fill="white" stroke="#6C6C6D" stroke-width="0.771291" stroke-linecap="square" stroke-dasharray="6.86 6.86"/>
<circle cx="46.5" cy="14.9974" r="10" fill="white" stroke="#3F83F9" stroke-width="1.86679" stroke-linecap="round" stroke-linejoin="round"/>
<path d="M46.5 19.9974C47.0523 19.9974 47.5 19.5497 47.5 18.9974C47.5 18.4452 47.0523 17.9974 46.5 17.9974C45.9477 17.9974 45.5 18.4452 45.5 18.9974C45.5 19.5497 45.9477 19.9974 46.5 19.9974Z" fill="white" stroke="#3F83F9" stroke-width="1.86679" stroke-linecap="round" stroke-linejoin="round"/>
<line x1="46.4334" y1="9.93083" x2="46.4334" y2="15.064" stroke="#3F83F9" stroke-width="1.86679" stroke-linecap="round" stroke-linejoin="round"/>
</g>
<defs>
<clipPath id="clip0_10941_25362">
<rect width="72" height="72" fill="white"/>
</clipPath>
</defs>
</svg>
