<svg viewBox="0 0 15 18" fill="none" xmlns="http://www.w3.org/2000/svg">
<path d="M1.80286 7.93333C-1.02631 12.1566 1.86992 14.9768 4.37481 16.3339C4.58226 16.4463 5.08035 15.87 5.01062 15.6446C4.40867 13.6988 4.7373 10.6 5.55431 10.6C6.62615 10.6 6.62615 12.2 7.69799 12.2C8.51017 12.2 9.06593 9.3291 9.27417 7.6662C9.29082 7.53322 9.43061 7.45323 9.54817 7.51756C11.9857 8.85136 11.3698 13.3984 10.844 16.1756C10.7916 16.4526 11.1091 16.6391 11.3147 16.4463C17.4771 10.6682 11.2987 3.94051 6.80864 1.11334C6.70957 1.05096 6.58048 1.08882 6.52126 1.18981C5.84389 2.34491 3.14544 6.0962 1.80286 7.93333Z" stroke="currentColor"/>
</svg>
