<svg viewBox="0 0 21 20" fill="none" xmlns="http://www.w3.org/2000/svg">
<path d="M10.4993 10.0001H10.5076M13.4455 12.9464C9.54031 16.8516 5.05539 18.6984 3.4282 17.0712C1.80102 15.444 3.64775 10.9591 7.55299 7.05384C11.4582 3.1486 15.9432 1.30187 17.5703 2.92905C19.1975 4.55624 17.3508 9.04115 13.4455 12.9464ZM13.4455 7.05369C17.3508 10.9589 19.1975 15.4439 17.5703 17.071C15.9431 18.6982 11.4582 16.8515 7.55296 12.9462C3.64771 9.041 1.80098 4.55609 3.42817 2.9289C5.05535 1.30172 9.54027 3.14845 13.4455 7.05369ZM10.9159 10.0001C10.9159 10.2302 10.7294 10.4168 10.4993 10.4168C10.2692 10.4168 10.0826 10.2302 10.0826 10.0001C10.0826 9.77 10.2692 9.58345 10.4993 9.58345C10.7294 9.58345 10.9159 9.77 10.9159 10.0001Z" stroke="currentColor" stroke-linecap="round" stroke-linejoin="round"/>
</svg>
