<svg viewBox="0 0 18 18" fill="none" xmlns="http://www.w3.org/2000/svg">
<path fill-rule="evenodd" clip-rule="evenodd" d="M2 6.5625C2 6.41332 2.05926 6.27024 2.16475 6.16475C2.27024 6.05926 2.41332 6 2.5625 6H3.2765C3.974 6 4.553 6.558 4.553 7.266V12.1875C4.553 12.3367 4.49374 12.4798 4.38825 12.5852C4.28276 12.6907 4.13968 12.75 3.9905 12.75C3.84132 12.75 3.69824 12.6907 3.59275 12.5852C3.48726 12.4798 3.428 12.3367 3.428 12.1875V7.266C3.42732 7.24679 3.42287 7.2279 3.41488 7.21042C3.4069 7.19293 3.39555 7.17719 3.38148 7.16409C3.36741 7.151 3.35089 7.14081 3.33288 7.1341C3.31487 7.12739 3.29571 7.1243 3.2765 7.125H2.5625C2.41332 7.125 2.27024 7.06574 2.16475 6.96025C2.05926 6.85476 2 6.71168 2 6.5625ZM6.2855 6.5625C6.2855 6.41332 6.34476 6.27024 6.45025 6.16475C6.55574 6.05926 6.69882 6 6.848 6H8.99075C9.68825 6 10.268 6.558 10.268 7.266V8.6715C10.268 9.3795 9.6875 9.9375 8.99075 9.9375H7.562C7.54279 9.9368 7.52363 9.93989 7.50562 9.9466C7.48761 9.95331 7.47109 9.9635 7.45702 9.97659C7.44295 9.98969 7.4316 10.0054 7.42362 10.0229C7.41563 10.0404 7.41118 10.0593 7.4105 10.0785V11.484C7.4105 11.5538 7.4705 11.625 7.562 11.625H9.7055C9.85468 11.625 9.99776 11.6843 10.1032 11.7898C10.2087 11.8952 10.268 12.0383 10.268 12.1875C10.268 12.3367 10.2087 12.4798 10.1032 12.5852C9.99776 12.6907 9.85468 12.75 9.7055 12.75H7.562C7.39509 12.7508 7.22966 12.7187 7.07517 12.6555C6.92067 12.5924 6.78014 12.4994 6.66159 12.3819C6.54305 12.2644 6.44882 12.1247 6.38429 11.9707C6.31976 11.8168 6.28619 11.6517 6.2855 11.4847V10.0778C6.2855 9.3705 6.86525 8.8125 7.562 8.8125H8.99075C9.00996 8.8133 9.02914 8.81031 9.04719 8.8037C9.06524 8.79708 9.08182 8.78697 9.09596 8.77394C9.1101 8.76092 9.12153 8.74523 9.1296 8.72778C9.13768 8.71033 9.14223 8.69146 9.143 8.67225V7.26525C9.14223 7.24597 9.13765 7.22704 9.12953 7.20954C9.12141 7.19204 9.10991 7.17632 9.09569 7.16328C9.08147 7.15024 9.06481 7.14015 9.04667 7.13358C9.02853 7.12701 9.00927 7.12409 8.99 7.125H6.848C6.69882 7.125 6.55574 7.06574 6.45025 6.96025C6.34476 6.85476 6.2855 6.71168 6.2855 6.5625ZM11.9998 6.5625C11.9998 6.41332 12.059 6.27024 12.1645 6.16475C12.27 6.05926 12.4131 6 12.5623 6H14.705C15.4025 6 15.9823 6.558 15.9823 7.266V11.484C15.9823 12.192 15.4018 12.75 14.705 12.75H12.5623C12.4131 12.75 12.27 12.6907 12.1645 12.5852C12.059 12.4798 11.9998 12.3367 11.9998 12.1875C11.9998 12.0383 12.059 11.8952 12.1645 11.7898C12.27 11.6843 12.4131 11.625 12.5623 11.625H14.705C14.7242 11.6258 14.7434 11.6228 14.7614 11.6162C14.7795 11.6096 14.7961 11.5995 14.8102 11.5864C14.8243 11.5734 14.8358 11.5577 14.8439 11.5403C14.8519 11.5228 14.8565 11.504 14.8573 11.4847V9.9375H12.5623C12.4131 9.9375 12.27 9.87824 12.1645 9.77275C12.059 9.66726 11.9998 9.52418 11.9998 9.375C11.9998 9.22582 12.059 9.08274 12.1645 8.97725C12.27 8.87176 12.4131 8.8125 12.5623 8.8125H14.8573V7.266C14.8566 7.24672 14.8521 7.22777 14.8441 7.21024C14.836 7.1927 14.8246 7.17693 14.8105 7.16382C14.7963 7.15072 14.7797 7.14054 14.7616 7.13388C14.7435 7.12721 14.7243 7.1242 14.705 7.125H12.5623C12.4131 7.125 12.27 7.06574 12.1645 6.96025C12.059 6.85476 11.9998 6.71168 11.9998 6.5625Z" fill="currentColor"/>
</svg>
