<svg width="14" height="14" viewBox="0 0 14 14" fill="none" xmlns="http://www.w3.org/2000/svg">
<path d="M11.2665 9.59297C11.9289 8.61107 12.3162 7.42906 12.3162 6.15812C12.3162 2.76273 9.5535 0 6.15812 0C2.76273 0 0 2.76273 0 6.15812C0 9.5535 2.76273 12.3162 6.15812 12.3162C7.42801 12.3162 8.60911 11.9295 9.59056 11.268L11.5236 13.2011C11.9855 13.663 12.7368 13.663 13.1986 13.2011C13.6666 12.7392 13.6666 11.988 13.1986 11.5199L11.2665 9.59297ZM6.15812 11.0846C3.44169 11.0846 1.23162 8.87455 1.23162 6.15812C1.23162 3.44169 3.44169 1.23162 6.15812 1.23162C8.87455 1.23162 11.0846 3.44169 11.0846 6.15812C11.0846 8.87455 8.87455 11.0846 6.15812 11.0846Z" fill="#6B7083"/>
<path d="M3.07568 4.93066H4.30731V8.61753H3.07568V4.93066Z" fill="#6B7083"/>
<path d="M5.54248 3.69922H6.7741V8.61771H5.54248V3.69922Z" fill="#6B7083"/>
<path d="M8.00879 6.15771H9.24041V8.61727H8.00879V6.15771Z" fill="#6B7083"/>
</svg>
