<svg width="24" height="24" viewBox="0 0 24 24" fill="none" xmlns="http://www.w3.org/2000/svg">
<path d="M12 15C8.25454 14.3396 7.38106 12.8083 7 9H17C16.3804 12.9302 15.1815 14.1506 12 15Z" stroke="black" stroke-linejoin="round"/>
<path d="M4.37384 23H20.3571C20.6815 23 20.9176 22.6923 20.8337 22.379L19.8623 18.7526C19.7706 18.4102 19.5045 18.142 19.1629 18.0475L14.595 16.7843C14.2012 16.6754 13.9286 16.3171 13.9286 15.9086C13.9286 15.4068 13.5218 15 13.02 15H10.985C10.4805 15 10.0714 15.409 10.0714 15.9136C10.0714 16.3202 9.80269 16.6779 9.41214 16.7911L5.06033 18.0522C4.74138 18.1446 4.48913 18.3893 4.38707 18.7053L3.42224 21.6927C3.21367 22.3384 3.69521 23 4.37384 23Z" stroke="black" stroke-linejoin="round"/>
<rect x="6" y="6" width="12" height="3" rx="1" stroke="black" stroke-linejoin="round"/>
<path d="M17 6.5C17 5.90905 16.8707 5.32389 16.6194 4.77792C16.3681 4.23196 15.9998 3.73588 15.5355 3.31802C15.0712 2.90016 14.52 2.56869 13.9134 2.34254C13.3068 2.1164 12.6566 2 12 2C11.3434 2 10.6932 2.1164 10.0866 2.34254C9.47995 2.56869 8.92876 2.90016 8.46447 3.31802C8.00017 3.73588 7.63188 4.23196 7.3806 4.77792C7.12933 5.32389 7 5.90905 7 6.5" stroke="black"/>
<line x1="10.6708" y1="2.22361" x2="11.2236" y2="3.32918" stroke="black" stroke-linecap="round"/>
<line x1="0.5" y1="-0.5" x2="1.73607" y2="-0.5" transform="matrix(-0.447214 0.894427 0.894427 0.447214 14 2)" stroke="black" stroke-linecap="round"/>
</svg>
