<svg width="8" height="8" viewBox="0 0 8 8" fill="none" xmlns="http://www.w3.org/2000/svg">
<g clip-path="url(#clip0_5295_83251)">
<path d="M2.25 1.24633V6.75383C2.25082 6.79778 2.26321 6.84074 2.28592 6.87837C2.30863 6.91601 2.34087 6.94699 2.37937 6.96819C2.41788 6.98939 2.46129 7.00006 2.50524 6.99914C2.54919 6.99821 2.59211 6.98571 2.62969 6.9629L7.13219 4.20915C7.16815 4.18738 7.19789 4.1567 7.21854 4.12008C7.23918 4.08345 7.25002 4.04212 7.25002 4.00008C7.25002 3.95804 7.23918 3.91671 7.21854 3.88009C7.19789 3.84347 7.16815 3.81279 7.13219 3.79102L2.62969 1.03727C2.59211 1.01446 2.54919 1.00196 2.50524 1.00103C2.46129 1.0001 2.41788 1.01078 2.37937 1.03198C2.34087 1.05318 2.30863 1.08416 2.28592 1.12179C2.26321 1.15943 2.25082 1.20238 2.25 1.24633Z" fill="#3F83F9" stroke="#3F83F9" stroke-width="1.08511" stroke-linecap="round" stroke-linejoin="round"/>
</g>
<defs>
<clipPath id="clip0_5295_83251">
<rect width="8" height="8" fill="white"/>
</clipPath>
</defs>
</svg>
