<svg width="20" height="21" viewBox="0 0 20 21" fill="none" xmlns="http://www.w3.org/2000/svg">
<g>
<path d="M2.5 16.75V5.5C2.5 5.33424 2.56585 5.17527 2.68306 5.05806C2.80027 4.94085 2.95924 4.875 3.125 4.875H7.29141C7.42664 4.875 7.55822 4.91886 7.66641 5L10 6.75H15.625C15.7908 6.75 15.9497 6.81585 16.0669 6.93306C16.1842 7.05027 16.25 7.20924 16.25 7.375V9.25" stroke="currentColor" stroke-linecap="round" stroke-linejoin="round"/>
<path d="M2.5 16.75L4.85781 9.67734C4.8993 9.55289 4.97889 9.44465 5.08532 9.36796C5.19174 9.29126 5.3196 9.24999 5.45078 9.25H18.125C18.224 9.24999 18.3217 9.27352 18.4098 9.31865C18.498 9.36377 18.5742 9.4292 18.6321 9.50954C18.69 9.58989 18.728 9.68284 18.7429 9.78074C18.7578 9.87865 18.7493 9.9787 18.718 10.0727L16.4914 16.75H2.5Z" stroke="currentColor" stroke-linecap="round" stroke-linejoin="round"/>
</g>
</svg>
