<svg width="24" height="24" viewBox="0 0 24 24" fill="none" xmlns="http://www.w3.org/2000/svg">
<path d="M4 7H20.4481C21.1056 7 21.5842 7.6237 21.414 8.25882L18.1986 20.2588C18.0815 20.696 17.6853 21 17.2327 21H6.7543C6.30782 21 5.91544 20.704 5.79278 20.2747L2.36421 8.27472C2.18169 7.6359 2.66135 7 3.32573 7H4ZM4 7V5C4 4.44772 4.44772 4 5 4H9M20 6.5V5C20 4.44772 19.5523 4 19 4H15M9 4H15M9 4C9 3.44772 9.44772 3 10 3H14C14.5523 3 15 3.44772 15 4" stroke="black"/>
<path d="M10.2322 12.2322C10.5819 11.8826 11.0273 11.6445 11.5123 11.548C11.9972 11.4516 12.4999 11.5011 12.9567 11.6903C13.4135 11.8795 13.804 12.2 14.0787 12.6111C14.3534 13.0222 14.5 13.5055 14.5 14" stroke="black" stroke-linecap="round" stroke-linejoin="round"/>
<path d="M13.9821 15.5235C13.6639 15.9375 13.224 16.2415 12.7242 16.3928C12.2245 16.5441 11.6898 16.535 11.1954 16.367C10.701 16.1989 10.2717 15.8803 9.96759 15.4558C9.66351 15.0313 9.5 14.5222 9.5 14" stroke="black" stroke-linecap="round" stroke-linejoin="round"/>
<path d="M13 13.5L13.885 13.9425C14.4572 14.2286 15.1472 13.9113 15.3023 13.2906L15.5 12.5" stroke="black" stroke-linecap="round"/>
<path d="M10.6737 13.9657L9.82624 13.7754C9.19002 13.6325 8.58942 14.1269 8.60746 14.7787L8.62878 15.5489" stroke="black" stroke-linecap="round"/>
</svg>
