<svg width="16" height="16" viewBox="0 0 16 16" fill="none" xmlns="http://www.w3.org/2000/svg">
<path d="M2.60306 14.2573L2.89695 13.8528L2.60306 14.2573ZM1.74271 13.3969L2.14722 13.1031L1.74271 13.3969ZM14.2573 13.3969L13.8528 13.1031L14.2573 13.3969ZM13.3969 14.2573L13.1031 13.8528L13.3969 14.2573ZM13.3969 1.74271L13.1031 2.14722L13.3969 1.74271ZM14.2573 2.60306L13.8528 2.89695L14.2573 2.60306ZM2.60306 1.74271L2.89695 2.14722L2.60306 1.74271ZM1.74271 2.60306L2.14722 2.89695L1.74271 2.60306ZM11.1111 5C11.3873 5 11.6111 4.77614 11.6111 4.5C11.6111 4.22386 11.3873 4 11.1111 4V5ZM4.5 4C4.22386 4 4 4.22386 4 4.5C4 4.77614 4.22386 5 4.5 5V4ZM7.30556 10.7222C7.30556 10.9984 7.52941 11.2222 7.80556 11.2222C8.0817 11.2222 8.30556 10.9984 8.30556 10.7222H7.30556ZM8 14.5C6.53063 14.5 5.46877 14.4993 4.64506 14.4101C3.8307 14.3218 3.30864 14.1519 2.89695 13.8528L2.30916 14.6618C2.91973 15.1054 3.63791 15.3068 4.53735 15.4043C5.42743 15.5007 6.55291 15.5 8 15.5V14.5ZM0.5 8C0.5 9.44709 0.499314 10.5726 0.595748 11.4627C0.693196 12.3621 0.8946 13.0803 1.3382 13.6908L2.14722 13.1031C1.84811 12.6914 1.67816 12.1693 1.58993 11.3549C1.50069 10.5312 1.5 9.46937 1.5 8H0.5ZM2.89695 13.8528C2.60925 13.6438 2.35625 13.3907 2.14722 13.1031L1.3382 13.6908C1.60891 14.0634 1.93657 14.3911 2.30916 14.6618L2.89695 13.8528ZM14.5 8C14.5 9.46937 14.4993 10.5312 14.4101 11.3549C14.3218 12.1693 14.1519 12.6914 13.8528 13.1031L14.6618 13.6908C15.1054 13.0803 15.3068 12.3621 15.4043 11.4627C15.5007 10.5726 15.5 9.44709 15.5 8H14.5ZM8 15.5C9.44709 15.5 10.5726 15.5007 11.4627 15.4043C12.3621 15.3068 13.0803 15.1054 13.6908 14.6618L13.1031 13.8528C12.6914 14.1519 12.1693 14.3218 11.3549 14.4101C10.5312 14.4993 9.46937 14.5 8 14.5V15.5ZM13.8528 13.1031C13.6438 13.3907 13.3907 13.6438 13.1031 13.8528L13.6908 14.6618C14.0634 14.3911 14.3911 14.0634 14.6618 13.6908L13.8528 13.1031ZM8 1.5C9.46937 1.5 10.5312 1.50069 11.3549 1.58993C12.1693 1.67816 12.6914 1.84811 13.1031 2.14722L13.6908 1.3382C13.0803 0.8946 12.3621 0.693196 11.4627 0.595748C10.5726 0.499314 9.44709 0.5 8 0.5V1.5ZM15.5 8C15.5 6.55291 15.5007 5.42743 15.4043 4.53735C15.3068 3.63791 15.1054 2.91973 14.6618 2.30916L13.8528 2.89695C14.1519 3.30864 14.3218 3.8307 14.4101 4.64506C14.4993 5.46877 14.5 6.53063 14.5 8H15.5ZM13.1031 2.14722C13.3907 2.35625 13.6438 2.60925 13.8528 2.89695L14.6618 2.30916C14.3911 1.93657 14.0634 1.60891 13.6908 1.3382L13.1031 2.14722ZM8 0.5C6.55291 0.5 5.42743 0.499314 4.53735 0.595748C3.63791 0.693196 2.91973 0.8946 2.30916 1.3382L2.89695 2.14722C3.30864 1.84811 3.8307 1.67816 4.64506 1.58993C5.46877 1.50069 6.53063 1.5 8 1.5V0.5ZM1.5 8C1.5 6.53063 1.50069 5.46877 1.58993 4.64506C1.67816 3.8307 1.84811 3.30864 2.14722 2.89695L1.3382 2.30916C0.8946 2.91973 0.693196 3.63791 0.595748 4.53735C0.499314 5.42743 0.5 6.55291 0.5 8H1.5ZM2.30916 1.3382C1.93657 1.60891 1.60891 1.93657 1.3382 2.30916L2.14722 2.89695C2.35625 2.60925 2.60925 2.35625 2.89695 2.14722L2.30916 1.3382ZM11.1111 4H7.80556V5H11.1111V4ZM7.80556 4H4.5V5H7.80556V4ZM7.30556 4.5V10.7222H8.30556V4.5H7.30556Z" fill="#3F83F9"/>
</svg>
