<svg width="24" height="27" viewBox="0 0 24 27" fill="none" xmlns="http://www.w3.org/2000/svg">
<path d="M3.51909 24.2773L3.98932 23.6301L3.51909 24.2773ZM2.16712 22.9254L2.81433 22.4551L2.16712 22.9254ZM21.8329 22.9254L21.1857 22.4551L21.8329 22.9254ZM20.4809 24.2773L20.0107 23.6301L20.4809 24.2773ZM20.4809 2.16712L20.0107 2.81433L20.4809 2.16712ZM21.8329 3.51909L21.1857 3.98932L21.8329 3.51909ZM3.51909 2.16712L3.98932 2.81433L3.51909 2.16712ZM2.16712 3.51909L2.81433 3.98932L2.16712 3.51909ZM7.11111 17.3111C6.66929 17.3111 6.31111 17.6693 6.31111 18.1111C6.31111 18.5529 6.66929 18.9111 7.11111 18.9111V17.3111ZM10.7778 18.9111C11.2196 18.9111 11.5778 18.5529 11.5778 18.1111C11.5778 17.6693 11.2196 17.3111 10.7778 17.3111V18.9111ZM7.11111 12.4222C6.66929 12.4222 6.31111 12.7804 6.31111 13.2222C6.31111 13.6641 6.66929 14.0222 7.11111 14.0222V12.4222ZM16.8889 14.0222C17.3307 14.0222 17.6889 13.6641 17.6889 13.2222C17.6889 12.7804 17.3307 12.4222 16.8889 12.4222V14.0222ZM7.11111 7.53334C6.66929 7.53334 6.31111 7.89151 6.31111 8.33334C6.31111 8.77517 6.66929 9.13334 7.11111 9.13334V7.53334ZM10.7778 9.13334C11.2196 9.13334 11.5778 8.77517 11.5778 8.33334C11.5778 7.89151 11.2196 7.53334 10.7778 7.53334V9.13334ZM22.2 12V14.4445H23.8V12H22.2ZM1.8 14.4445V12H0.2V14.4445H1.8ZM12 24.6445C9.69068 24.6445 8.02295 24.6434 6.72949 24.5032C5.45101 24.3647 4.63342 24.0981 3.98932 23.6301L3.04886 24.9246C4.01117 25.6237 5.14253 25.9407 6.55715 26.0939C7.9568 26.2456 9.72632 26.2445 12 26.2445V24.6445ZM0.2 14.4445C0.2 16.7181 0.198901 18.4877 0.350544 19.8873C0.503808 21.3019 0.82075 22.4333 1.5199 23.3956L2.81433 22.4551C2.34637 21.811 2.07975 20.9935 1.94124 19.715C1.8011 18.4215 1.8 16.7538 1.8 14.4445H0.2ZM3.98932 23.6301C3.53843 23.3025 3.14192 22.906 2.81433 22.4551L1.5199 23.3956C1.94618 23.9823 2.46215 24.4983 3.04886 24.9246L3.98932 23.6301ZM22.2 14.4445C22.2 16.7538 22.1989 18.4215 22.0588 19.715C21.9203 20.9935 21.6536 21.811 21.1857 22.4551L22.4801 23.3956C23.1793 22.4333 23.4962 21.3019 23.6495 19.8873C23.8011 18.4877 23.8 16.7181 23.8 14.4445H22.2ZM12 26.2445C14.2737 26.2445 16.0432 26.2456 17.4429 26.0939C18.8575 25.9407 19.9888 25.6237 20.9511 24.9246L20.0107 23.6301C19.3666 24.0981 18.549 24.3647 17.2705 24.5032C15.9771 24.6434 14.3093 24.6445 12 24.6445V26.2445ZM21.1857 22.4551C20.8581 22.906 20.4616 23.3025 20.0107 23.6301L20.9511 24.9246C21.5379 24.4983 22.0538 23.9823 22.4801 23.3956L21.1857 22.4551ZM12 1.8C14.3093 1.8 15.9771 1.8011 17.2705 1.94124C18.549 2.07975 19.3666 2.34637 20.0107 2.81433L20.9511 1.5199C19.9888 0.82075 18.8575 0.503808 17.4429 0.350544C16.0432 0.198901 14.2737 0.2 12 0.2V1.8ZM23.8 12C23.8 9.72632 23.8011 7.9568 23.6495 6.55715C23.4962 5.14253 23.1793 4.01117 22.4801 3.04886L21.1857 3.98932C21.6536 4.63342 21.9203 5.45101 22.0588 6.72949C22.1989 8.02295 22.2 9.69068 22.2 12H23.8ZM20.0107 2.81433C20.4616 3.14192 20.8581 3.53844 21.1857 3.98932L22.4801 3.04886C22.0538 2.46215 21.5379 1.94618 20.9511 1.5199L20.0107 2.81433ZM12 0.2C9.72632 0.2 7.9568 0.198901 6.55715 0.350544C5.14253 0.503808 4.01117 0.82075 3.04886 1.5199L3.98932 2.81433C4.63342 2.34637 5.45101 2.07975 6.72949 1.94124C8.02295 1.8011 9.69068 1.8 12 1.8V0.2ZM1.8 12C1.8 9.69068 1.8011 8.02295 1.94124 6.72949C2.07975 5.45101 2.34637 4.63342 2.81433 3.98932L1.5199 3.04886C0.82075 4.01117 0.503808 5.14253 0.350544 6.55715C0.198901 7.9568 0.2 9.72632 0.2 12H1.8ZM3.04886 1.5199C2.46215 1.94618 1.94618 2.46215 1.5199 3.04886L2.81433 3.98932C3.14192 3.53843 3.53843 3.14192 3.98932 2.81433L3.04886 1.5199ZM7.11111 18.9111H10.7778V17.3111H7.11111V18.9111ZM7.11111 14.0222H16.8889V12.4222H7.11111V14.0222ZM7.11111 9.13334H10.7778V7.53334H7.11111V9.13334Z" fill="#34495E"/>
</svg>
