<svg viewBox="0 0 14 10" fill="none" xmlns="http://www.w3.org/2000/svg">
<path fill-rule="evenodd" clip-rule="evenodd" d="M0.25005 5.00015C0.25005 5.19907 0.329067 5.38983 0.46972 5.53048C0.610372 5.67114 0.801137 5.75015 1.00005 5.75015L11.19 5.75015L8.47005 8.47015C8.33757 8.61233 8.26545 8.80038 8.26887 8.99468C8.2723 9.18898 8.35101 9.37436 8.48843 9.51178C8.62584 9.64919 8.81123 9.7279 9.00553 9.73133C9.19983 9.73476 9.38787 9.66263 9.53005 9.53015L13.53 5.53015C13.6705 5.38953 13.7494 5.1989 13.7494 5.00015C13.7494 4.8014 13.6705 4.61078 13.53 4.47015L9.53005 0.470154C9.38787 0.337674 9.19983 0.26555 9.00553 0.268978C8.81123 0.272407 8.62584 0.351119 8.48843 0.488532C8.35101 0.625945 8.2723 0.811331 8.26887 1.00563C8.26545 1.19993 8.33757 1.38798 8.47005 1.53015L11.19 4.25015L1.00005 4.25015C0.801137 4.25015 0.610372 4.32917 0.46972 4.46982C0.329067 4.61048 0.25005 4.80124 0.25005 5.00015Z" fill="currentColor"/>
</svg>
