<svg width="16" height="16" viewBox="0 0 16 16" fill="none" xmlns="http://www.w3.org/2000/svg">
<path d="M9 13.5H3C2.72386 13.5 2.5 13.2761 2.5 13V3C2.5 2.72386 2.72386 2.5 3 2.5H13C13.2761 2.5 13.5 2.72386 13.5 3V6.33333" stroke="#3F83F9" stroke-linecap="round" stroke-linejoin="round"/>
<path d="M5 6C5.55228 6 6 5.55228 6 5C6 4.44772 5.55228 4 5 4C4.44772 4 4 4.44772 4 5C4 5.55228 4.44772 6 5 6Z" stroke="#3F83F9" stroke-linecap="round" stroke-linejoin="round"/>
<path d="M3.33325 13.3333L9.20532 6.43665C9.24193 6.39238 9.2854 6.35726 9.33325 6.33329C9.3811 6.30933 9.43239 6.297 9.48419 6.297C9.53599 6.297 9.58728 6.30933 9.63513 6.33329C9.68298 6.35726 9.72645 6.39238 9.76306 6.43665L10.4696 7.40843" stroke="#3F83F9" stroke-linecap="round" stroke-linejoin="round"/>
<path d="M12.2222 13.1111C13.4495 13.1111 14.4444 12.1161 14.4444 10.8888C14.4444 9.66155 13.4495 8.66663 12.2222 8.66663C10.9949 8.66663 10 9.66155 10 10.8888C10 12.1161 10.9949 13.1111 12.2222 13.1111Z" stroke="#3F83F9" stroke-linecap="round" stroke-linejoin="round"/>
<path d="M13.7937 12.4602L15.3334 13.9999" stroke="#3F83F9" stroke-linecap="round" stroke-linejoin="round"/>
</svg>
