<svg width="25" height="28" viewBox="0 0 25 28" fill="none" xmlns="http://www.w3.org/2000/svg">
<path d="M5.19469 5.77777L4.97587 6.65076L5.19469 5.77777ZM9.24499 3.43933L8.37954 3.19234L9.24499 3.43933ZM1.96182 11.3773L2.60845 10.7513L1.96182 11.3773ZM1.96182 16.0541L1.3152 15.4281H1.3152L1.96182 16.0541ZM5.19469 21.6536L5.41352 22.5266L5.19469 21.6536ZM9.24499 23.9921L8.37954 24.2391L9.24499 23.9921ZM15.7107 23.9921L16.5762 24.2391L15.7107 23.9921ZM19.761 21.6536L19.9798 20.7806L19.761 21.6536ZM22.9939 16.0541L22.3473 16.6801L22.9939 16.0541ZM22.9939 11.3773L22.3473 10.7513L22.9939 11.3773ZM19.761 5.77777L19.5422 4.90477L19.761 5.77777ZM15.7107 3.43933L16.5762 3.19234L15.7107 3.43933ZM4.97587 6.65076C7.20691 7.21 9.47923 5.89808 10.1104 3.68631L8.37954 3.19234C8.01492 4.46998 6.7023 5.22782 5.41352 4.90477L4.97587 6.65076ZM2.60845 10.7513C0.885648 8.97172 2.57335 6.04854 4.97587 6.65076L5.41352 4.90477C1.25445 3.86225 -1.66718 8.92267 1.3152 12.0033L2.60845 10.7513ZM2.60844 16.6801C4.20828 15.0276 4.20828 12.4038 2.60845 10.7513L1.3152 12.0033C2.23936 12.9579 2.23936 14.4735 1.3152 15.4281L2.60844 16.6801ZM4.97587 20.7806C2.57335 21.3829 0.885648 18.4597 2.60844 16.6801L1.3152 15.4281C-1.66718 18.5087 1.25445 23.5691 5.41352 22.5266L4.97587 20.7806ZM10.1104 23.7451C9.47923 21.5333 7.20691 20.2214 4.97587 20.7806L5.41352 22.5266C6.7023 22.2036 8.01492 22.9614 8.37954 24.2391L10.1104 23.7451ZM14.8453 23.7451C14.1656 26.1268 10.7902 26.1268 10.1104 23.7451L8.37954 24.2391C9.55623 28.3622 15.3995 28.3622 16.5762 24.2391L14.8453 23.7451ZM19.9798 20.7806C17.7488 20.2214 15.4765 21.5333 14.8453 23.7451L16.5762 24.2391C16.9408 22.9614 18.2534 22.2036 19.5422 22.5266L19.9798 20.7806ZM22.3473 16.6801C24.0701 18.4597 22.3824 21.3829 19.9798 20.7806L19.5422 22.5266C23.7013 23.5691 26.6229 18.5087 23.6405 15.4281L22.3473 16.6801ZM22.3473 10.7513C20.7474 12.4038 20.7474 15.0276 22.3473 16.6801L23.6405 15.4281C22.7164 14.4735 22.7164 12.9579 23.6405 12.0033L22.3473 10.7513ZM19.9798 6.65076C22.3824 6.04854 24.0701 8.97172 22.3473 10.7513L23.6405 12.0033C26.6229 8.92267 23.7013 3.86225 19.5422 4.90477L19.9798 6.65076ZM14.8453 3.68631C15.4765 5.89808 17.7488 7.21 19.9798 6.65076L19.5422 4.90477C18.2534 5.22782 16.9408 4.46998 16.5762 3.19234L14.8453 3.68631ZM16.5762 3.19234C15.3995 -0.930781 9.55623 -0.930779 8.37954 3.19234L10.1104 3.68631C10.7902 1.30456 14.1656 1.30456 14.8453 3.68631L16.5762 3.19234ZM7.97712 13.7157C7.97712 16.2014 9.99217 18.2164 12.4779 18.2164V16.4164C10.9863 16.4164 9.77712 15.2073 9.77712 13.7157H7.97712ZM12.4779 18.2164C14.9635 18.2164 16.9786 16.2014 16.9786 13.7157H15.1786C15.1786 15.2073 13.9694 16.4164 12.4779 16.4164V18.2164ZM16.9786 13.7157C16.9786 11.23 14.9635 9.21496 12.4779 9.21496V11.015C13.9694 11.015 15.1786 12.2241 15.1786 13.7157H16.9786ZM12.4779 9.21496C9.99217 9.21496 7.97712 11.23 7.97712 13.7157H9.77712C9.77712 12.2241 10.9863 11.015 12.4779 11.015V9.21496Z" fill="#34495E"/>
</svg>
