<svg viewBox="0 0 20 21" fill="none" xmlns="http://www.w3.org/2000/svg">
<g clip-path="url(#clip0_1438_1534)">
<path d="M10 13.625C11.7259 13.625 13.125 12.2259 13.125 10.5C13.125 8.77411 11.7259 7.375 10 7.375C8.27411 7.375 6.875 8.77411 6.875 10.5C6.875 12.2259 8.27411 13.625 10 13.625Z" stroke="currentColor" stroke-linecap="round" stroke-linejoin="round"/>
<path d="M10.1603 16.6023C10.0556 16.6023 9.95011 16.6023 9.84777 16.6023L7.34386 18C6.36912 17.6721 5.46501 17.1632 4.67902 16.5L4.66964 13.6875C4.61417 13.6 4.56183 13.5117 4.51339 13.4211L2.02355 12.0031C1.82744 11.0112 1.82744 9.9904 2.02355 8.99844L4.51105 7.58438C4.56183 7.49453 4.61418 7.40547 4.6673 7.31797L4.6798 4.50547C5.46508 3.84035 6.36895 3.32957 7.34386 3L9.84386 4.39766C9.94855 4.39766 10.054 4.39766 10.1564 4.39766L12.6564 3C13.6311 3.32788 14.5352 3.83679 15.3212 4.5L15.3306 7.3125C15.3861 7.4 15.4384 7.48828 15.4868 7.57891L17.9751 8.99609C18.1712 9.98806 18.1712 11.0088 17.9751 12.0008L15.4876 13.4148C15.4368 13.5047 15.3845 13.5938 15.3314 13.6813L15.3189 16.4938C14.5341 17.159 13.6308 17.67 12.6564 18L10.1603 16.6023Z" stroke="currentColor" stroke-linecap="round" stroke-linejoin="round"/>
</g>
<defs>
<clipPath id="clip0_1438_1534">
<rect width="20" height="20" fill="white" transform="translate(0 0.5)"/>
</clipPath>
</defs>
</svg>
