<svg width="16" height="16" viewBox="0 0 16 16" fill="none" xmlns="http://www.w3.org/2000/svg">
<path d="M11.3337 1.16602C12.5302 1.16619 13.4998 2.1365 13.4998 3.33301C13.4996 4.52937 12.5301 5.49885 11.3337 5.49902C10.1372 5.49902 9.16692 4.52948 9.16675 3.33301C9.16675 2.13639 10.1371 1.16602 11.3337 1.16602Z" stroke="#3F83F9"/>
<path d="M4.00024 5.83398C5.19671 5.83416 6.16626 6.80447 6.16626 8.00098C6.16608 9.19734 5.1966 10.1668 4.00024 10.167C2.80374 10.167 1.83343 9.19744 1.83325 8.00098C1.83325 6.80436 2.80363 5.83398 4.00024 5.83398Z" stroke="#3F83F9"/>
<circle cx="11.3334" cy="12.6667" r="2.16667" stroke="#3F83F9"/>
<path d="M6 6.33362L9 4.60156M6 9.66695L9 11.7323" stroke="#3F83F9"/>
</svg>
