<svg width="16" height="16" viewBox="0 0 16 16" fill="none" xmlns="http://www.w3.org/2000/svg">
<path d="M1.3335 13.6236C1.48494 13.84 1.68548 14.0153 1.91778 14.1344C2.15008 14.2536 2.40717 14.3129 2.66683 14.3073C2.92649 14.3129 3.18358 14.2536 3.41588 14.1344C3.64818 14.0153 3.84872 13.84 4.00016 13.6236C4.15161 13.4072 4.35214 13.2319 4.58445 13.1127C4.81675 12.9936 5.07383 12.9343 5.3335 12.9399C5.59316 12.9343 5.85025 12.9936 6.08255 13.1127C6.31485 13.2319 6.51538 13.4072 6.66683 13.6236C6.81828 13.84 7.01881 14.0153 7.25111 14.1344C7.48341 14.2536 7.7405 14.3129 8.00016 14.3073C8.25983 14.3129 8.51691 14.2536 8.74921 14.1344C8.98152 14.0153 9.18205 13.84 9.3335 13.6236C9.48494 13.4072 9.68548 13.2319 9.91778 13.1127C10.1501 12.9936 10.4072 12.9343 10.6668 12.9399C10.9265 12.9343 11.1836 12.9936 11.4159 13.1127C11.6482 13.2319 11.8487 13.4072 12.0002 13.6236C12.1516 13.84 12.3521 14.0153 12.5844 14.1344C12.8167 14.2536 13.0738 14.3129 13.3335 14.3073C13.5932 14.3129 13.8502 14.2536 14.0825 14.1344C14.3148 14.0153 14.5154 13.84 14.6668 13.6236M2.66683 12.2561L2.00016 8.83741H14.0002L12.6668 11.5724M3.3335 8.83741V4.73496H8.66683L11.3335 8.83741M4.66683 4.73496V2H4.00016" stroke="#6C6C6D" stroke-linecap="round" stroke-linejoin="round"/>
</svg>
