<svg width="32" height="33" viewBox="0 0 32 33" fill="none" xmlns="http://www.w3.org/2000/svg">
<rect y="0.5" width="32" height="32" rx="6" fill="#F3F7FF"/>
<g clip-path="url(#clip0_2553_15983)">
<path d="M22 15.75C22.8734 15.7493 23.7349 15.9524 24.516 16.343C25.2972 16.7335 25.9765 17.3009 26.5 18" stroke="black" stroke-linecap="round" stroke-linejoin="round"/>
<path d="M5.5 18C6.0235 17.3009 6.70281 16.7335 7.48398 16.343C8.26514 15.9524 9.12663 15.7493 10 15.75" stroke="black" stroke-linecap="round" stroke-linejoin="round"/>
<path d="M16 21.75C18.0711 21.75 19.75 20.0711 19.75 18C19.75 15.9289 18.0711 14.25 16 14.25C13.9289 14.25 12.25 15.9289 12.25 18C12.25 20.0711 13.9289 21.75 16 21.75Z" stroke="black" stroke-linecap="round" stroke-linejoin="round"/>
<path d="M10.75 24.75C11.2884 23.8364 12.0559 23.079 12.9767 22.5529C13.8974 22.0267 14.9395 21.75 16 21.75C17.0605 21.75 18.1026 22.0267 19.0233 22.5529C19.9441 23.079 20.7116 23.8364 21.25 24.75" stroke="black" stroke-linecap="round" stroke-linejoin="round"/>
<path d="M19.0938 12C19.234 11.4568 19.5238 10.9638 19.9302 10.577C20.3366 10.1902 20.8433 9.92508 21.3927 9.81179C21.9422 9.69851 22.5125 9.74158 23.0387 9.93611C23.5649 10.1306 24.0261 10.4688 24.3697 10.9123C24.7134 11.3557 24.9258 11.8867 24.9829 12.4448C25.04 13.0029 24.9394 13.5659 24.6926 14.0697C24.4458 14.5735 24.0627 14.9981 23.5867 15.2951C23.1108 15.5921 22.561 15.7497 22 15.75" stroke="black" stroke-linecap="round" stroke-linejoin="round"/>
<path d="M9.99995 15.75C9.43892 15.7497 8.8892 15.5921 8.41324 15.2951C7.93727 14.9981 7.55413 14.5735 7.30733 14.0697C7.06053 13.5659 6.95996 13.0029 7.01703 12.4448C7.07411 11.8867 7.28655 11.3557 7.63022 10.9123C7.9739 10.4688 8.43504 10.1306 8.96127 9.93611C9.4875 9.74158 10.0577 9.69851 10.6072 9.81179C11.1567 9.92508 11.6634 10.1902 12.0698 10.577C12.4762 10.9638 12.7659 11.4568 12.9062 12" stroke="black" stroke-linecap="round" stroke-linejoin="round"/>
</g>
<defs>
<clipPath id="clip0_2553_15983">
<rect width="24" height="24" fill="white" transform="translate(4 4.5)"/>
</clipPath>
</defs>
</svg>
