<svg width="32" height="33" viewBox="0 0 32 33" fill="none" xmlns="http://www.w3.org/2000/svg">
<rect y="0.5" width="32" height="32" rx="6" fill="#F3F7FF"/>
<g clip-path="url(#clip0_2553_15990)">
<path d="M8.5 24H5.5C5.30109 24 5.11032 23.921 4.96967 23.7803C4.82902 23.6397 4.75 23.4489 4.75 23.25V19.5C4.75 19.3011 4.82902 19.1103 4.96967 18.9697C5.11032 18.829 5.30109 18.75 5.5 18.75H8.5" stroke="black" stroke-linecap="round" stroke-linejoin="round"/>
<path d="M14.5 19.5H17.5L23.7812 18.0553C24.0122 17.992 24.2546 17.9829 24.4897 18.0285C24.7247 18.0741 24.9461 18.1734 25.1365 18.3185C25.327 18.4636 25.4814 18.6507 25.5878 18.8652C25.6942 19.0797 25.7497 19.3159 25.75 19.5553C25.7501 19.8444 25.6697 20.1279 25.5176 20.3738C25.3656 20.6197 25.148 20.8184 24.8894 20.9475L21.25 22.5L15.25 24H8.5V18.75L10.8438 16.4063C11.0532 16.1975 11.3018 16.0321 11.5753 15.9195C11.8488 15.8069 12.1418 15.7493 12.4375 15.75H17.125C17.6223 15.75 18.0992 15.9476 18.4508 16.2992C18.8025 16.6508 19 17.1277 19 17.625C19 18.1223 18.8025 18.5992 18.4508 18.9508C18.0992 19.3025 17.6223 19.5 17.125 19.5H14.5Z" stroke="black" stroke-linecap="round" stroke-linejoin="round"/>
<path d="M11 12.5V8.5C11 7.94771 11.4477 7.5 12 7.5H24C24.5523 7.5 25 7.94771 25 8.5V15.5" stroke="black" stroke-linecap="round" stroke-linejoin="round"/>
<path d="M20.5 7.5H15.5V12H20.5V7.5Z" stroke="black" stroke-linecap="round" stroke-linejoin="round"/>
</g>
<defs>
<clipPath id="clip0_2553_15990">
<rect width="24" height="24" fill="white" transform="translate(4 4.5)"/>
</clipPath>
</defs>
</svg>
