<svg width="24" height="24" viewBox="0 0 24 24" fill="none" xmlns="http://www.w3.org/2000/svg">
<g id="Toolbox" clip-path="url(#clip0_604_5761)">
<path id="Vector" d="M21 6.75H3C2.58579 6.75 2.25 7.08579 2.25 7.5V18C2.25 18.4142 2.58579 18.75 3 18.75H21C21.4142 18.75 21.75 18.4142 21.75 18V7.5C21.75 7.08579 21.4142 6.75 21 6.75Z" stroke="black" stroke-linecap="round" stroke-linejoin="round"/>
<path id="Vector_2" d="M2.25 11.25H21.75" stroke="black" stroke-linecap="round" stroke-linejoin="round"/>
<path id="Vector_3" d="M6.75 9.75V12.75" stroke="black" stroke-linecap="round" stroke-linejoin="round"/>
<path id="Vector_4" d="M17.25 9.75V12.75" stroke="black" stroke-linecap="round" stroke-linejoin="round"/>
<path id="Vector_5" d="M15.75 6.75V5.25C15.75 4.85218 15.592 4.47064 15.3107 4.18934C15.0294 3.90804 14.6478 3.75 14.25 3.75H9.75C9.35218 3.75 8.97064 3.90804 8.68934 4.18934C8.40804 4.47064 8.25 4.85218 8.25 5.25V6.75" stroke="black" stroke-linecap="round" stroke-linejoin="round"/>
</g>
<defs>
<clipPath id="clip0_604_5761">
<rect width="24" height="24" fill="white"/>
</clipPath>
</defs>
</svg>
