<svg width="16" height="17" viewBox="0 0 16 17" fill="none" xmlns="http://www.w3.org/2000/svg">
<path d="M14.9792 3.54169H1" stroke="currentColor" stroke-linecap="round" stroke-linejoin="round"/>
<path d="M6.08334 7.35419V12.4375" stroke="currentColor" stroke-linecap="round" stroke-linejoin="round"/>
<path d="M9.89584 7.35419V12.4375" stroke="currentColor" stroke-linecap="round" stroke-linejoin="round"/>
<path d="M13.7083 3.54169V15.6146C13.7083 15.7831 13.6414 15.9447 13.5222 16.0639C13.4031 16.1831 13.2415 16.25 13.0729 16.25H2.90626C2.73774 16.25 2.57612 16.1831 2.45695 16.0639C2.33779 15.9447 2.27084 15.7831 2.27084 15.6146V3.54169" stroke="currentColor" stroke-linecap="round" stroke-linejoin="round"/>
<path d="M11.1667 3.54167V2.27083C11.1667 1.93379 11.0328 1.61055 10.7944 1.37222C10.5561 1.13389 10.2329 1 9.89583 1H6.08333C5.74629 1 5.42305 1.13389 5.18472 1.37222C4.94639 1.61055 4.8125 1.93379 4.8125 2.27083V3.54167" stroke="currentColor" stroke-linecap="round" stroke-linejoin="round"/>
</svg>
