<svg width="16" height="16" viewBox="0 0 16 16" fill="none" xmlns="http://www.w3.org/2000/svg">
<g clip-path="url(#clip0_12994_28023)">
<path d="M10.8335 4.33203H13.4947C13.5944 4.33198 13.6918 4.36171 13.7744 4.41739C13.857 4.47307 13.9211 4.55216 13.9585 4.64453L14.8335 6.83203" stroke="#6C6C6D" stroke-linecap="round" stroke-linejoin="round"/>
<path d="M0.833496 8.33203H10.8335" stroke="#6C6C6D" stroke-linecap="round" stroke-linejoin="round"/>
<path d="M11.3335 12.832C12.1619 12.832 12.8335 12.1605 12.8335 11.332C12.8335 10.5036 12.1619 9.83203 11.3335 9.83203C10.5051 9.83203 9.8335 10.5036 9.8335 11.332C9.8335 12.1605 10.5051 12.832 11.3335 12.832Z" stroke="#6C6C6D" stroke-linecap="round" stroke-linejoin="round"/>
<path d="M4.3335 12.832C5.16192 12.832 5.8335 12.1605 5.8335 11.332C5.8335 10.5036 5.16192 9.83203 4.3335 9.83203C3.50507 9.83203 2.8335 10.5036 2.8335 11.332C2.8335 12.1605 3.50507 12.832 4.3335 12.832Z" stroke="#6C6C6D" stroke-linecap="round" stroke-linejoin="round"/>
<path d="M9.8335 11.332H5.8335" stroke="#6C6C6D" stroke-linecap="round" stroke-linejoin="round"/>
<path d="M10.8335 6.83203H14.8335V10.832C14.8335 10.9646 14.7808 11.0918 14.687 11.1856C14.5933 11.2794 14.4661 11.332 14.3335 11.332H12.8335" stroke="#6C6C6D" stroke-linecap="round" stroke-linejoin="round"/>
<path d="M2.8335 11.332H1.3335C1.20089 11.332 1.07371 11.2794 0.979943 11.1856C0.886174 11.0918 0.833496 10.9646 0.833496 10.832V3.83203C0.833496 3.69942 0.886174 3.57225 0.979943 3.47848C1.07371 3.38471 1.20089 3.33203 1.3335 3.33203H10.8335V9.91766" stroke="#6C6C6D" stroke-linecap="round" stroke-linejoin="round"/>
</g>
<defs>
<clipPath id="clip0_12994_28023">
<rect width="16" height="16" fill="white"/>
</clipPath>
</defs>
</svg>
