<svg viewBox="0 0 18 17" fill="none" xmlns="http://www.w3.org/2000/svg">
<path d="M16.7082 9.33342V5.58341C16.7082 4.47835 16.2692 3.41854 15.4878 2.63714C14.7064 1.85573 13.6466 1.41675 12.5415 1.41675H5.45817C4.3531 1.41675 3.29329 1.85573 2.51189 2.63714C1.73049 3.41854 1.2915 4.47835 1.2915 5.58341V11.4167C1.2915 11.9639 1.39928 12.5057 1.60867 13.0113C1.81807 13.5168 2.12498 13.9761 2.51189 14.363C3.29329 15.1444 4.3531 15.5834 5.45817 15.5834H10.6748" stroke="currentColor" stroke-linecap="round" stroke-linejoin="round"/>
<path d="M1.5083 12.6669L3.79163 10.0002C4.0915 9.70236 4.48506 9.51729 4.9057 9.47629C5.32634 9.43529 5.74823 9.54088 6.09997 9.77519C6.4517 10.0095 6.87359 10.1151 7.29423 10.0741C7.71488 10.0331 8.10843 9.84801 8.4083 9.55019L10.35 7.60852C10.9079 7.04872 11.6465 6.70536 12.4342 6.63973C13.2218 6.57409 14.0071 6.79045 14.65 7.25019L16.7083 8.84185M5.67497 6.97519C5.85663 6.97409 6.0363 6.93723 6.20371 6.8667C6.37113 6.79617 6.52301 6.69335 6.65069 6.56413C6.77837 6.4349 6.87935 6.28179 6.94786 6.11353C7.01636 5.94528 7.05106 5.76518 7.04997 5.58352C7.04887 5.40186 7.01201 5.22219 6.94148 5.05478C6.87095 4.88736 6.76813 4.73548 6.63891 4.6078C6.50968 4.48012 6.35657 4.37914 6.18831 4.31063C6.02006 4.24212 5.83996 4.20743 5.6583 4.20852C5.29142 4.21073 4.94044 4.35859 4.68258 4.61958C4.42471 4.88057 4.28109 5.23331 4.2833 5.60019C4.28551 5.96707 4.43337 6.31805 4.69436 6.57591C4.95535 6.83377 5.30808 6.9774 5.67497 6.97519Z" stroke="currentColor" stroke-linecap="round" stroke-linejoin="round"/>
<path d="M14.5889 11V15.1667" stroke="currentColor" stroke-linecap="round" stroke-linejoin="round"/>
<path d="M16.4999 12.7542L14.8607 11.1151C14.8251 11.0793 14.7828 11.0509 14.7361 11.0315C14.6895 11.0122 14.6395 11.0022 14.5891 11.0022C14.5386 11.0022 14.4886 11.0122 14.442 11.0315C14.3953 11.0509 14.353 11.0793 14.3174 11.1151L12.6782 12.7542" stroke="currentColor" stroke-linecap="round" stroke-linejoin="round"/>
</svg>
