<svg width="20" height="20" viewBox="0 0 20 20" fill="none" xmlns="http://www.w3.org/2000/svg">
<path d="M3.54151 9.99984C3.54151 8.44056 4.05603 6.92484 5.00526 5.68778C5.95449 4.45072 7.28539 3.56144 8.79155 3.15786C10.2977 2.75429 11.8949 2.85898 13.3355 3.45569C14.7761 4.05241 15.9796 5.10779 16.7592 6.45817C17.5388 7.80855 17.8511 9.37846 17.6476 10.9244C17.4441 12.4703 16.7361 13.9059 15.6335 15.0085C14.5309 16.1111 13.0954 16.819 11.5494 17.0226C10.0035 17.2261 8.43356 16.9138 7.08318 16.1342M3.54151 9.99984L5.00526 8.74984M3.54151 9.99984L2.2915 8.74984" stroke="currentColor" stroke-linecap="round"/>
<path d="M10.625 7.0835V11.0309L12.2917 12.0835" stroke="currentColor" stroke-linecap="round"/>
</svg>
