<svg viewBox="0 0 21 20" fill="none" xmlns="http://www.w3.org/2000/svg">
<path d="M14.4703 5.41667C14.928 4.90521 15.5933 4.58333 16.3337 4.58333C17.7144 4.58333 18.8337 5.70262 18.8337 7.08333C18.8337 8.46404 17.7144 9.58333 16.3337 9.58333H11.3337M6.1369 3.33333C6.59467 2.82188 7.25991 2.5 8.00033 2.5C9.38104 2.5 10.5003 3.61929 10.5003 5C10.5003 6.38071 9.38104 7.5 8.00033 7.5H2.16699M9.47024 16.6667C9.92801 17.1781 10.5932 17.5 11.3337 17.5C12.7144 17.5 13.8337 16.3807 13.8337 15C13.8337 13.6193 12.7144 12.5 11.3337 12.5H2.16699" stroke="currentColor" stroke-linecap="round" stroke-linejoin="round"/>
</svg>
